<?xml version="1.0" standalone="no"?>
<!DOCTYPE svg PUBLIC "-//W3C//DTD SVG 20010904//EN"
 "http://www.w3.org/TR/2001/REC-SVG-20010904/DTD/svg10.dtd">
<svg version="1.0" xmlns="http://www.w3.org/2000/svg"
 width="1365.000000pt" height="1365.000000pt" viewBox="0 0 1365.000000 1365.000000"
 preserveAspectRatio="xMidYMid meet">

<g transform="translate(0.000000,1365.000000) scale(0.100000,-0.100000)"
fill="#000000" stroke="none">
<path d="M6073 13089 c-121 -15 -433 -116 -433 -139 0 -4 64 -15 143 -24 129
-15 154 -15 267 -1 147 17 255 19 366 5 l81 -10 104 48 c159 73 156 66 49 91
-155 37 -422 51 -577 30z"/>
<path d="M7160 13089 c-137 -28 -277 -67 -365 -101 -117 -45 -395 -178 -395
-189 0 -10 145 -69 184 -76 23 -3 70 12 192 65 292 127 391 147 686 138 106
-3 218 -9 248 -12 67 -8 302 24 297 40 -10 30 -279 114 -431 135 -92 13 -352
13 -416 0z"/>
<path d="M5235 12863 c-198 -28 -522 -144 -698 -250 -64 -38 -237 -161 -237
-169 0 -2 37 11 83 28 159 60 350 117 505 152 272 61 378 76 550 76 443 0 826
-81 1257 -265 71 -30 134 -55 139 -55 6 0 93 33 195 74 469 188 813 256 1236
243 281 -8 539 -60 884 -178 80 -28 160 -54 176 -59 l30 -9 -35 30 c-56 48
-247 164 -350 213 -114 54 -274 108 -419 143 -91 22 -137 26 -330 30 -142 4
-264 1 -330 -6 -264 -30 -699 -149 -949 -261 l-107 -48 -37 19 c-227 116 -713
253 -1006 284 -125 14 -481 18 -557 8z"/>
<path d="M7030 12831 c-30 -10 -68 -25 -85 -34 l-30 -16 76 -35 77 -36 53 19
c118 41 140 53 128 67 -14 17 -113 54 -142 53 -12 0 -47 -8 -77 -18z"/>
<path d="M8035 12639 c-110 -11 -129 -17 -116 -33 6 -6 57 -34 113 -62 93 -44
110 -49 173 -49 39 0 96 4 128 8 l59 9 -34 24 c-46 35 -207 114 -227 113 -9
-1 -52 -5 -96 -10z"/>
<path d="M5427 12607 c-38 -20 -86 -50 -109 -66 l-41 -30 29 -7 c16 -5 74 -8
130 -8 97 -1 103 0 175 37 41 20 90 47 109 58 31 19 32 22 15 31 -10 6 -68 13
-129 16 l-111 4 -68 -35z"/>
<path d="M6024 12541 c-63 -29 -249 -79 -339 -92 -102 -14 -319 -6 -575 23
-172 19 -208 20 -310 10 -403 -41 -701 -244 -906 -617 l-38 -70 125 120 c309
296 534 395 904 395 68 0 197 -9 287 -21 135 -18 195 -20 353 -16 218 7 320
24 494 87 218 78 320 125 304 141 -11 11 -156 48 -212 54 -32 3 -58 -1 -87
-14z"/>
<path d="M7427 12532 c-53 -15 -96 -31 -94 -36 4 -12 154 -79 294 -131 250
-93 513 -116 877 -75 250 28 474 25 601 -10 191 -52 360 -157 554 -345 l135
-130 -48 90 c-160 301 -419 497 -751 571 -102 23 -297 23 -455 0 -63 -9 -191
-19 -285 -22 -201 -8 -332 10 -530 72 -66 21 -138 39 -160 40 -22 2 -84 -9
-138 -24z"/>
<path d="M4727 12187 c-126 -88 -209 -130 -407 -209 -158 -63 -157 -68 15 -47
194 22 284 48 434 124 111 55 291 170 291 185 0 5 -15 10 -32 10 -18 0 -69 3
-113 6 l-80 6 -108 -75z"/>
<path d="M8660 12253 c-67 -7 -65 -12 21 -73 159 -111 369 -204 534 -235 93
-18 294 -31 280 -18 -5 5 -55 24 -110 42 -135 44 -305 126 -423 204 -53 35
-112 69 -131 75 -32 11 -95 13 -171 5z"/>
<path d="M6505 12204 c-291 -16 -806 -101 -1087 -179 -767 -213 -1449 -574
-2068 -1095 -697 -586 -1276 -1412 -1587 -2263 -161 -444 -256 -861 -309
-1362 -22 -201 -25 -746 -6 -945 65 -677 269 -1381 572 -1965 490 -947 1245
-1734 2166 -2258 610 -347 1190 -545 1929 -659 144 -22 174 -23 725 -23 l575
0 165 28 c876 149 1558 413 2235 867 303 202 516 380 821 685 374 373 595 657
843 1080 467 798 718 1666 738 2560 13 590 -41 1028 -196 1585 -346 1246
-1161 2360 -2241 3062 -253 165 -434 266 -670 377 -575 269 -1084 410 -1760
486 -131 15 -691 27 -845 19z m779 -220 c939 -88 1825 -417 2558 -951 356
-259 773 -656 1032 -983 257 -324 429 -596 606 -955 395 -803 567 -1613 530
-2485 -19 -445 -76 -791 -201 -1224 -110 -379 -317 -851 -531 -1211 -436 -730
-1073 -1364 -1813 -1805 -154 -92 -533 -281 -700 -350 -706 -290 -1402 -408
-2192 -371 -392 18 -646 55 -1001 146 -385 99 -627 188 -957 350 -435 214
-779 435 -1130 726 -137 113 -509 488 -631 634 -621 748 -1030 1652 -1163
2570 -68 470 -66 1047 4 1515 169 1131 744 2221 1586 3007 198 184 463 397
655 524 804 535 1666 824 2614 879 186 11 530 3 734 -16z"/>
<path d="M6005 11743 c-499 -105 -823 -239 -1145 -476 -126 -93 -358 -327
-443 -447 -217 -310 -331 -703 -298 -1028 14 -133 40 -237 93 -370 l43 -107 6
120 c13 233 64 400 170 557 49 71 52 80 100 261 98 374 251 634 530 902 243
232 514 398 869 530 149 56 166 65 125 64 -16 -1 -39 -3 -50 -6z"/>
<path d="M7571 11746 c3 -3 82 -35 175 -70 318 -119 504 -229 789 -467 281
-234 482 -563 596 -977 22 -81 54 -172 71 -202 147 -261 179 -357 187 -570 l6
-145 21 40 c30 56 91 251 110 354 23 124 14 358 -19 501 -175 743 -808 1296
-1722 1504 -118 27 -224 43 -214 32z"/>
<path d="M4340 11176 c-250 -186 -432 -400 -564 -664 -204 -407 -244 -887
-105 -1269 22 -63 95 -209 107 -217 5 -3 12 72 15 167 7 165 20 324 33 377 5
22 7 23 16 7 5 -10 21 -50 34 -90 20 -59 26 -105 35 -257 11 -215 27 -302 76
-420 70 -171 165 -305 299 -424 109 -96 196 -153 495 -326 401 -233 533 -329
711 -519 133 -142 247 -334 309 -519 112 -339 216 -542 412 -807 69 -93 164
-194 419 -447 l329 -328 28 33 c15 17 42 52 60 76 l31 44 -308 311 c-388 392
-504 535 -624 771 -168 332 -200 653 -94 950 20 54 35 100 33 101 -1 1 -31 -4
-67 -13 -89 -20 -225 -13 -310 17 -213 75 -443 249 -557 420 -108 164 -150
269 -178 445 -25 160 -45 243 -85 351 -57 153 -73 231 -72 369 0 113 15 201
47 280 15 37 -41 -23 -86 -92 -40 -61 -89 -194 -104 -281 -4 -23 -10 -42 -14
-42 -12 0 -86 166 -114 255 -14 44 -35 146 -47 225 -11 80 -24 163 -28 185
l-7 40 -37 -90 c-82 -206 -87 -385 -17 -592 30 -89 70 -168 172 -338 32 -54
70 -123 83 -152 28 -65 72 -239 81 -324 6 -59 5 -62 -13 -55 -50 18 -331 195
-381 240 -74 66 -162 185 -208 282 -38 81 -91 251 -81 261 3 3 35 -21 71 -53
165 -148 217 -192 284 -238 39 -27 73 -47 76 -45 2 2 -30 49 -72 104 -241 319
-386 616 -439 900 -27 141 -27 439 0 580 51 271 200 576 391 798 37 42 63 77
58 77 -4 0 -46 -29 -93 -64z"/>
<path d="M9291 11143 c187 -221 308 -464 371 -745 20 -91 23 -127 22 -318 -1
-239 -13 -329 -65 -495 -61 -196 -167 -391 -352 -648 -55 -76 -97 -141 -93
-144 8 -9 184 127 285 221 47 44 98 91 114 105 l27 25 -6 -34 c-12 -64 -65
-214 -100 -284 -72 -142 -204 -275 -384 -386 -108 -66 -211 -122 -217 -117 -4
5 43 234 64 312 21 78 57 150 142 282 114 180 146 256 177 425 21 117 14 243
-21 369 -27 95 -59 169 -74 169 -4 0 -11 -46 -14 -102 -7 -105 -40 -271 -78
-388 -27 -82 -89 -220 -99 -220 -5 0 -11 24 -15 53 -14 100 -53 200 -116 296
-33 51 -63 90 -65 88 -3 -3 4 -40 14 -83 45 -180 36 -345 -29 -534 -60 -173
-77 -235 -94 -349 -40 -271 -128 -453 -305 -631 -132 -132 -319 -248 -472
-290 -86 -24 -218 -27 -296 -6 -33 8 -52 9 -52 3 0 -6 18 -66 40 -133 34 -105
41 -141 46 -241 23 -416 -152 -767 -638 -1285 l-148 -157 63 -55 c34 -31 69
-56 77 -56 16 0 248 235 350 355 89 105 211 276 285 400 37 62 98 196 161 350
56 138 112 271 123 298 60 131 154 260 290 400 142 146 259 229 621 442 404
237 502 305 614 426 132 143 210 283 261 470 22 78 28 127 34 289 8 186 10
199 42 288 27 77 34 90 41 72 13 -36 27 -185 34 -384 l7 -188 33 52 c41 65 99
202 124 294 46 163 52 543 12 726 -82 376 -310 757 -597 998 -95 79 -207 162
-220 162 -3 0 31 -43 76 -97z"/>
<path d="M3414 10427 c-151 -211 -251 -500 -269 -782 -8 -111 8 -329 31 -439
50 -241 174 -485 350 -696 83 -100 332 -346 340 -337 4 3 -1 44 -9 89 -20 99
-33 225 -43 408 l-7 135 -82 100 c-150 183 -248 353 -313 544 l-35 106 -5 248
c-5 304 5 397 59 564 22 69 39 126 37 128 -2 2 -26 -29 -54 -68z"/>
<path d="M10180 10494 c0 -6 11 -43 25 -83 13 -40 37 -121 52 -179 27 -104 28
-115 28 -367 0 -251 -1 -263 -27 -355 -56 -202 -142 -363 -305 -573 l-103
-132 0 -76 c0 -98 -15 -249 -41 -412 -11 -71 -18 -131 -14 -135 8 -9 252 235
342 342 153 182 261 388 328 627 54 192 59 556 11 741 -39 147 -63 213 -121
333 -66 135 -175 303 -175 269z"/>
<path d="M2882 9513 c-93 -464 -24 -916 199 -1318 82 -148 177 -271 306 -396
146 -140 216 -191 358 -260 197 -95 354 -139 500 -139 75 0 363 27 377 36 4 3
-24 41 -61 85 -87 100 -130 165 -203 304 -57 109 -66 135 -49 135 5 0 45 -22
88 -48 43 -27 152 -91 243 -142 202 -114 279 -163 395 -250 98 -74 273 -245
262 -256 -4 -4 -42 5 -85 20 -173 60 -361 69 -722 36 -257 -24 -507 -26 -643
-5 -110 16 -267 66 -378 119 -176 83 -378 245 -527 421 -57 67 -47 32 26 -94
128 -223 236 -355 394 -481 320 -257 589 -338 1183 -357 l200 -6 -117 94 c-65
51 -118 99 -118 106 0 9 17 13 53 13 42 0 63 -6 99 -29 63 -40 499 -374 523
-401 l20 -22 -40 17 c-76 32 -190 64 -265 74 -55 7 -125 6 -275 -6 -231 -17
-551 -12 -655 11 -78 17 -185 59 -338 131 l-113 54 28 -32 c113 -132 353 -281
565 -353 175 -59 227 -64 650 -64 314 0 390 -3 446 -16 80 -19 239 -93 267
-124 l20 -23 -21 7 c-57 18 -165 36 -214 36 -30 0 -120 -14 -200 -31 -359 -76
-549 -78 -769 -10 l-63 19 19 -20 c25 -28 241 -131 343 -163 83 -27 93 -27
445 -36 377 -9 424 -14 511 -53 152 -70 238 -156 325 -324 33 -63 39 -71 35
-42 -3 19 -8 69 -11 110 -12 135 -67 335 -128 455 -111 221 -324 455 -642 704
-85 67 -157 126 -160 132 -8 12 51 3 150 -21 246 -62 435 -191 579 -394 38
-53 69 -96 71 -96 6 0 -27 182 -50 272 -34 140 -115 312 -216 463 -139 207
-360 381 -789 622 -107 61 -222 127 -255 148 -194 124 -408 312 -473 419 l-37
60 -3 -56 c-6 -117 64 -452 127 -611 48 -119 105 -238 151 -312 23 -39 51 -84
62 -102 l19 -31 -68 20 c-231 69 -425 178 -587 329 -80 75 -209 227 -235 277
-12 22 -11 23 11 12 116 -60 442 -266 517 -326 l93 -76 -47 90 c-60 116 -132
202 -275 325 -266 228 -317 276 -399 372 -182 212 -274 385 -336 634 -31 123
-55 289 -55 377 0 112 -15 107 -38 -13z"/>
<path d="M10736 9599 c-3 -13 -7 -80 -10 -149 -15 -323 -146 -654 -362 -911
-68 -80 -142 -150 -394 -371 -162 -142 -214 -197 -273 -289 -34 -53 -70 -129
-65 -135 2 -1 30 20 63 47 75 62 192 140 315 209 52 29 128 76 168 103 41 27
76 47 78 44 3 -3 -28 -49 -69 -104 -85 -112 -244 -269 -331 -327 -81 -54 -228
-130 -311 -162 -79 -30 -195 -65 -195 -59 0 3 20 35 45 72 147 218 254 506
294 788 36 257 36 251 17 236 -9 -8 -53 -61 -97 -118 -126 -163 -267 -269
-652 -489 -374 -215 -493 -299 -668 -473 -216 -216 -327 -436 -384 -761 -8
-47 -15 -98 -15 -115 0 -30 0 -30 25 13 114 200 329 377 535 440 71 22 240 55
246 49 2 -2 -69 -59 -157 -127 -374 -287 -567 -509 -677 -780 -65 -158 -103
-312 -117 -470 l-6 -65 43 80 c63 117 102 169 165 220 67 55 141 94 238 126
66 21 93 23 425 29 348 7 357 7 445 34 134 41 315 125 345 161 16 20 5 19 -72
-5 -176 -55 -407 -53 -663 5 -212 48 -303 54 -419 26 -49 -12 -91 -19 -94 -17
-6 7 81 61 156 97 106 51 159 57 622 62 421 6 426 6 520 32 168 47 386 154
510 251 55 42 170 154 158 154 -3 0 -55 -25 -114 -55 -118 -60 -249 -106 -360
-127 -82 -15 -424 -17 -689 -4 -199 10 -264 3 -387 -40 -112 -39 -118 -40 -83
-9 51 44 487 377 521 397 25 14 48 18 96 16 l63 -3 -130 -104 -130 -104 200 6
c335 11 542 39 718 98 177 59 294 123 452 245 189 145 379 394 460 599 l15 40
-42 -50 c-266 -311 -546 -481 -887 -539 -133 -23 -416 -21 -661 4 -336 34
-557 23 -718 -35 -38 -14 -75 -25 -81 -25 -19 0 43 83 106 140 73 67 215 172
313 232 154 93 557 328 565 328 35 0 -157 -329 -270 -461 -25 -29 -45 -56 -45
-59 0 -9 174 -29 315 -37 181 -9 344 29 550 128 128 61 191 104 311 209 316
276 524 672 589 1121 17 121 19 259 5 436 -8 108 -42 309 -55 321 -2 2 -6 -6
-9 -19z"/>
<path d="M6094 9586 c4 -15 29 -61 57 -102 76 -112 186 -187 328 -221 39 -9
71 -19 71 -22 0 -12 -240 -101 -326 -122 -194 -46 -441 4 -573 118 -22 18 -42
33 -46 33 -17 0 38 -69 106 -135 140 -133 305 -195 521 -195 94 0 102 2 137
28 110 85 363 231 482 278 78 30 195 60 271 69 67 8 176 -9 228 -36 l35 -18
-115 -1 c-166 -1 -246 -14 -363 -60 -135 -52 -490 -250 -450 -250 22 0 210 41
258 56 28 9 97 47 155 84 173 111 184 115 231 76 34 -29 110 -43 144 -28 14 6
49 32 80 57 52 42 85 56 85 36 0 -5 -20 -33 -44 -62 -90 -109 -208 -152 -314
-114 -44 16 -52 16 -70 3 -36 -25 -92 -105 -127 -181 -35 -77 -78 -212 -73
-228 2 -5 28 11 58 37 113 96 322 244 345 244 11 0 3 -33 -21 -87 -34 -75 -44
-103 -40 -103 2 0 23 26 47 58 165 219 373 333 614 335 113 2 181 -25 227 -87
l31 -41 -7 67 c-16 166 -105 258 -280 289 -64 11 -176 8 -221 -6 -14 -4 -37 7
-78 39 -124 96 -204 104 -522 55 -260 -40 -464 -44 -566 -11 -77 25 -224 111
-257 150 l-24 27 6 -29z"/>
<path d="M2578 9382 c-73 -112 -173 -305 -239 -457 -315 -732 -332 -1587 -47
-2354 51 -139 145 -340 239 -513 l53 -97 -27 -143 c-33 -172 -54 -373 -65
-603 l-7 -170 -87 172 c-85 171 -162 353 -213 508 -31 94 -107 387 -101 392 2
2 48 -34 102 -81 55 -48 119 -101 144 -118 l45 -33 -28 45 c-121 198 -256 541
-313 794 -57 255 -78 441 -90 781 -8 215 -11 213 -48 -30 -37 -237 -46 -379
-46 -693 0 -304 9 -451 41 -632 88 -511 271 -974 537 -1357 122 -177 364 -464
379 -449 2 2 -12 64 -31 137 -49 189 -65 288 -77 496 -7 129 -7 238 1 370 12
217 26 316 69 499 17 72 31 137 31 144 0 7 -43 90 -95 184 -147 266 -237 487
-311 766 -90 336 -108 482 -108 870 -1 310 11 460 50 665 55 285 155 622 259
875 25 62 45 114 42 116 -2 2 -29 -36 -59 -84z"/>
<path d="M11028 9425 c11 -27 38 -95 60 -150 82 -205 191 -582 231 -800 28
-152 40 -297 47 -595 9 -351 -13 -561 -91 -878 -76 -305 -184 -572 -357 -880
l-68 -123 35 -157 c63 -284 70 -348 70 -657 0 -320 -14 -451 -70 -675 -19 -74
-37 -146 -41 -160 -4 -20 6 -13 53 35 189 196 412 515 547 783 168 334 304
793 346 1167 13 120 13 723 -1 899 -10 134 -52 412 -64 424 -3 3 -5 -26 -5
-64 0 -80 -16 -307 -31 -444 -44 -408 -169 -844 -315 -1101 -56 -99 -75 -139
-67 -139 5 0 62 45 128 100 110 92 120 99 123 77 7 -52 -91 -394 -169 -589
-40 -100 -176 -377 -202 -413 -15 -19 -15 -18 -21 15 -3 19 -10 130 -16 245
-11 231 -28 379 -61 525 l-22 97 40 69 c305 523 479 1180 459 1734 -3 96 -10
213 -16 260 -29 255 -108 576 -196 800 -64 162 -192 418 -264 530 -77 118 -87
128 -62 65z"/>
<path d="M7690 9068 c-210 -30 -445 -209 -543 -415 -31 -67 -32 -70 -32 -214
l0 -146 40 -79 c54 -107 152 -206 255 -256 41 -20 89 -40 105 -44 26 -6 18 5
-60 82 -101 100 -139 162 -160 261 -30 140 -13 271 53 402 73 147 253 300 435
372 48 19 87 37 87 42 0 9 -98 7 -180 -5z"/>
<path d="M6750 8903 c-73 -81 -141 -192 -172 -283 -21 -58 -23 -83 -23 -245 1
-180 1 -180 36 -281 66 -191 177 -346 453 -640 286 -304 342 -393 385 -618
l17 -90 36 90 c42 106 68 205 68 261 0 30 -12 60 -50 123 -62 103 -79 124
-290 349 -327 350 -391 440 -464 652 -66 195 -59 453 19 624 45 100 55 125 51
125 -2 0 -32 -30 -66 -67z"/>
<path d="M6580 8911 c-117 -38 -170 -67 -280 -153 -175 -136 -215 -159 -343
-193 -42 -11 -64 -22 -58 -28 5 -5 76 -7 162 -5 134 3 160 6 203 26 27 12 51
21 52 19 8 -8 -71 -330 -98 -397 -40 -103 -68 -148 -146 -237 -62 -71 -64 -76
-37 -69 57 14 179 91 240 151 103 100 155 216 195 431 31 169 74 277 162 407
22 32 38 62 36 67 -2 5 -41 -4 -88 -19z"/>
<path d="M7035 8768 c-78 -51 -251 -229 -259 -264 -8 -36 17 -217 36 -264 l14
-33 38 84 c21 46 81 173 133 281 52 109 93 205 91 213 -2 13 -13 10 -53 -17z"/>
<path d="M6985 8373 c-16 -37 -50 -113 -75 -167 l-47 -100 34 -60 c47 -83 62
-98 90 -91 20 5 26 0 38 -28 21 -51 77 -121 227 -284 144 -157 235 -264 276
-326 14 -20 27 -35 29 -33 7 7 -26 176 -52 262 -14 45 -43 117 -64 160 -39 77
-68 115 -222 288 -96 107 -140 192 -177 335 l-28 113 -29 -69z"/>
<path d="M6446 8124 c-16 -36 -74 -129 -129 -207 -149 -213 -222 -379 -234
-532 -6 -91 -10 -92 73 20 32 44 145 169 251 277 l192 197 -39 90 c-22 50 -47
116 -56 148 -9 32 -19 61 -23 65 -3 3 -19 -23 -35 -58z"/>
<path d="M6461 7633 c-207 -217 -303 -335 -349 -431 -30 -63 -34 -80 -29 -125
6 -61 53 -229 75 -272 l16 -30 13 60 c35 165 94 296 176 395 29 36 131 145
226 242 l172 177 -45 64 c-83 116 -59 124 -255 -80z"/>
<path d="M7648 6437 c-103 -165 -148 -251 -203 -386 -80 -201 -152 -311 -391
-597 -91 -110 -170 -209 -176 -221 -9 -19 -3 -34 41 -102 l52 -79 102 126 c57
70 141 174 188 232 260 320 377 547 439 851 19 92 39 300 29 299 -2 -1 -38
-56 -81 -123z"/>
<path d="M5910 6520 c1 -56 26 -229 45 -300 66 -259 148 -433 306 -656 64 -90
86 -111 98 -98 44 46 101 120 101 131 0 7 -15 30 -33 50 -33 38 -91 127 -139
213 -14 25 -54 110 -89 189 -34 80 -90 186 -123 235 -33 50 -83 132 -113 181
-50 85 -53 88 -53 55z"/>
<path d="M7189 5871 l-144 -139 41 -42 c26 -26 46 -40 54 -35 32 20 212 336
199 350 -3 2 -70 -58 -150 -134z"/>
<path d="M6337 5923 c9 -25 109 -191 139 -230 29 -39 42 -40 79 -12 l27 22
-99 99 c-54 55 -110 108 -125 119 -26 19 -27 19 -21 2z"/>
<path d="M6106 5648 c-3 -7 -10 -47 -16 -88 -27 -174 -97 -349 -194 -485 -76
-105 -123 -153 -228 -232 -165 -123 -310 -191 -486 -229 -44 -9 -79 -20 -77
-24 9 -15 125 -20 236 -10 146 12 265 46 397 112 56 28 105 49 108 46 10 -11
-68 -152 -150 -272 -182 -268 -371 -418 -600 -476 -223 -57 -468 8 -629 166
-67 65 -119 142 -164 244 l-33 75 0 -45 c0 -57 33 -188 64 -256 88 -192 260
-336 472 -395 62 -18 103 -22 189 -22 175 2 337 54 493 158 46 30 87 55 92 55
6 0 10 -24 10 -52 0 -382 148 -840 391 -1208 55 -83 99 -140 108 -140 21 1
151 81 164 101 8 12 2 27 -20 60 -17 24 -56 87 -88 139 -253 416 -353 779
-316 1155 13 137 25 186 86 375 24 74 58 198 75 275 55 249 109 384 237 598
l71 117 -31 46 c-18 24 -60 85 -95 135 -34 50 -64 84 -66 77z"/>
<path d="M6584 5618 c-200 -213 -364 -473 -452 -718 -57 -161 -92 -366 -91
-532 0 -102 10 -203 21 -213 12 -12 36 10 103 92 l70 85 7 107 c26 379 145
655 424 981 l96 112 -63 64 c-35 35 -66 64 -69 64 -3 0 -24 -19 -46 -42z"/>
<path d="M7488 5584 c-31 -44 -76 -104 -100 -134 l-44 -55 59 -90 c74 -114
167 -303 206 -420 16 -49 42 -148 57 -220 14 -71 46 -191 69 -265 82 -256 95
-327 95 -513 0 -193 -20 -313 -94 -555 l-34 -112 81 -60 c45 -33 88 -60 94
-60 17 0 36 48 83 205 64 214 100 433 100 608 0 33 4 57 11 57 5 0 36 -17 67
-39 200 -135 415 -196 608 -172 175 21 316 93 440 223 110 116 176 259 189
410 l7 73 -37 -75 c-77 -157 -212 -307 -326 -360 -194 -90 -455 -77 -649 32
-199 113 -374 308 -519 580 -28 52 -51 98 -51 102 0 4 33 -11 73 -33 201 -111
515 -167 682 -123 25 7 19 10 -46 21 -351 61 -682 301 -844 612 -52 100 -93
233 -102 333 -10 119 -12 119 -75 30z"/>
<path d="M6634 5288 c-62 -81 -66 -90 -46 -124 9 -16 75 -117 146 -224 71
-107 144 -219 162 -247 19 -29 38 -53 44 -53 15 0 30 69 37 165 5 81 3 95 -17
135 -40 79 -263 400 -278 400 -4 0 -26 -24 -48 -52z"/>
<path d="M7233 5266 c-29 -36 -53 -71 -53 -79 0 -7 20 -49 45 -92 103 -181
185 -479 185 -673 l0 -63 87 -115 c75 -98 89 -112 98 -97 6 11 10 97 10 218 0
233 -15 332 -77 520 -54 164 -201 444 -233 445 -5 0 -34 -29 -62 -64z"/>
<path d="M3147 5213 c-73 -185 -109 -390 -110 -628 -1 -221 22 -401 75 -583
18 -63 28 -79 70 -117 45 -41 226 -168 276 -194 23 -12 23 -12 -4 41 -129 254
-221 550 -270 868 -22 145 -25 453 -5 593 7 54 11 100 9 103 -3 3 -21 -35 -41
-83z"/>
<path d="M10473 5229 c5 -35 10 -185 10 -334 1 -218 -3 -287 -17 -360 -49
-251 -129 -505 -227 -718 -32 -72 -58 -131 -56 -133 6 -6 250 160 287 195 46
44 75 118 106 271 71 350 54 678 -52 1001 -45 138 -65 168 -51 78z"/>
<path d="M6474 5049 c-44 -76 -49 -91 -53 -157 -10 -211 68 -519 204 -797 97
-199 382 -612 420 -608 5 0 30 38 56 84 l47 83 -44 61 c-255 349 -417 675
-469 945 -9 47 -22 147 -30 222 -13 133 -26 177 -64 227 l-18 23 -49 -83z"/>
<path d="M7103 5101 c-29 -38 -39 -84 -53 -231 -21 -217 -63 -380 -150 -580
l-38 -88 55 -97 c46 -80 57 -94 69 -84 36 30 123 245 183 451 31 107 81 358
81 408 0 29 -105 250 -119 250 -4 0 -17 -13 -28 -29z"/>
<path d="M6670 4880 c0 -42 30 -221 40 -240 7 -11 15 -1 34 40 14 30 26 61 26
69 0 20 -59 127 -81 147 -18 16 -19 16 -19 -16z"/>
<path d="M11257 4638 c-126 -190 -162 -238 -311 -407 -381 -433 -931 -770
-1421 -871 -151 -31 -426 -54 -532 -45 l-88 8 80 14 c417 71 790 322 1031 694
52 80 161 295 169 335 l6 29 -18 -25 c-117 -160 -343 -399 -468 -495 -220
-171 -539 -311 -819 -360 -117 -20 -361 -20 -458 0 -40 9 -125 33 -188 55
-136 46 -131 48 -154 -78 -24 -133 -28 -124 72 -172 115 -56 350 -141 487
-175 61 -16 114 -31 118 -35 11 -9 -150 -82 -252 -114 -46 -15 -125 -32 -177
-38 -52 -7 -94 -15 -94 -19 0 -28 299 -50 416 -30 97 17 256 72 361 124 109
55 100 53 258 72 351 42 564 101 830 230 417 202 783 550 1040 989 85 145 247
486 230 486 -2 0 -55 -78 -118 -172z"/>
<path d="M2303 4740 c85 -224 249 -510 422 -733 134 -173 354 -378 560 -519
300 -206 665 -336 1073 -383 156 -18 174 -23 306 -84 183 -85 338 -123 496
-124 94 -1 250 26 250 43 0 4 -30 11 -67 15 -38 4 -111 18 -163 31 -104 26
-273 101 -267 118 2 6 73 32 158 57 165 50 240 76 389 140 144 61 137 51 116
161 -21 110 -40 153 -64 143 -176 -73 -333 -105 -517 -105 -302 0 -596 91
-896 276 -198 122 -417 325 -558 516 -39 53 -76 100 -81 103 -14 8 53 -145
102 -235 242 -444 642 -744 1098 -824 l75 -13 -98 -8 c-216 -17 -565 41 -812
135 -370 141 -641 315 -948 609 -193 185 -334 356 -497 601 -103 156 -107 160
-77 80z"/>
<path d="M7215 4370 l-39 -118 54 -79 c102 -149 216 -288 330 -403 129 -131
165 -159 182 -142 6 6 15 56 21 111 l10 100 -115 123 c-155 166 -201 224 -309
385 -50 76 -92 139 -93 140 -1 1 -20 -51 -41 -117z"/>
<path d="M6359 4429 c-115 -188 -189 -284 -371 -481 l-109 -117 12 -93 c18
-139 16 -137 75 -91 120 96 420 450 507 599 7 12 -57 212 -72 227 -6 6 -22
-11 -42 -44z"/>
<path d="M6270 3858 c-99 -112 -101 -114 -84 -159 7 -22 30 -71 50 -109 30
-57 39 -68 53 -61 31 17 131 130 131 148 0 10 -22 69 -48 130 l-48 113 -54
-62z"/>
<path d="M7296 3833 c-63 -174 -265 -511 -387 -646 l-52 -59 78 -78 c64 -64
82 -77 93 -68 26 22 188 243 243 333 31 50 93 161 139 248 63 121 80 163 74
177 -11 23 -143 170 -152 170 -4 0 -20 -35 -36 -77z"/>
<path d="M6563 3741 c-105 -130 -377 -414 -472 -494 l-53 -45 40 -86 c32 -67
45 -86 61 -86 59 0 442 388 595 603 l48 68 -43 62 c-82 118 -60 121 -176 -22z"/>
<path d="M7367 3347 c-20 -31 -45 -74 -57 -97 l-21 -41 48 -45 c76 -70 298
-242 414 -320 262 -175 587 -302 829 -324 165 -14 380 -12 490 5 370 59 769
294 1039 613 50 60 103 125 117 146 l26 38 -23 -7 c-13 -4 -68 -30 -123 -57
-54 -27 -134 -62 -177 -78 -107 -40 -159 -68 -264 -144 -97 -71 -344 -199
-463 -241 -115 -40 -247 -58 -432 -58 -186 -1 -259 13 -468 85 -301 103 -601
290 -838 521 l-62 59 -35 -55z"/>
<path d="M6573 3343 c-11 -16 -43 -54 -72 -85 l-53 -58 92 -112 c123 -153 282
-321 415 -441 123 -111 178 -152 197 -144 7 2 41 38 75 80 l63 75 -118 95
c-176 142 -410 392 -522 557 -22 33 -44 60 -48 60 -5 0 -17 -12 -29 -27z"/>
<path d="M3420 3301 c0 -22 106 -147 225 -266 277 -277 595 -449 944 -510 97
-17 324 -19 490 -5 119 11 263 47 399 101 128 51 342 157 348 172 6 17 -74
197 -88 197 -4 0 -66 -29 -136 -64 -141 -71 -305 -133 -432 -166 -72 -19 -114
-22 -270 -23 -213 0 -317 14 -477 68 -140 47 -213 86 -411 218 -98 66 -197
124 -233 137 -35 13 -120 48 -189 78 -164 71 -170 73 -170 63z"/>
<path d="M7485 2828 c-122 -186 -240 -331 -415 -512 -165 -170 -224 -219 -252
-210 -13 4 -90 72 -171 151 -104 102 -152 142 -160 135 -7 -5 -47 -35 -89 -66
l-78 -57 17 -26 c24 -36 344 -335 417 -389 32 -24 66 -44 76 -44 18 0 168 122
313 254 81 74 224 230 323 351 74 91 253 348 248 356 -7 12 -164 129 -173 129
-5 0 -30 -33 -56 -72z"/>
<path d="M6515 2779 c-295 -240 -571 -389 -903 -486 l-127 -38 -317 0 c-354 0
-340 5 -177 -66 139 -60 354 -135 514 -179 270 -73 690 -150 816 -150 l54 1
-145 62 c-209 90 -380 183 -380 207 0 3 37 21 83 40 122 49 353 170 459 241
108 72 297 221 348 273 l34 36 -74 74 -75 74 -110 -89z"/>
<path d="M7550 2412 c-19 -25 -48 -63 -63 -84 l-28 -37 68 -34 c37 -19 110
-51 160 -72 107 -43 121 -55 95 -78 -34 -31 -303 -164 -466 -231 -22 -9 -37
-18 -34 -21 7 -7 233 21 402 50 205 35 442 94 625 154 155 51 428 157 446 172
5 5 -28 9 -75 9 -47 0 -177 5 -290 10 -268 12 -414 47 -681 164 -59 25 -111
46 -115 46 -5 -1 -25 -22 -44 -48z"/>
<path d="M3662 12069 c-296 -79 -591 -233 -768 -401 -71 -67 -224 -257 -224
-279 0 -14 21 -11 104 16 113 37 143 55 242 145 130 120 217 175 379 243 93
38 105 41 105 22 0 -25 -69 -203 -112 -290 -64 -128 -135 -222 -258 -344 -135
-135 -198 -178 -524 -356 -270 -148 -366 -215 -510 -360 -133 -133 -209 -236
-283 -381 -85 -167 -86 -182 -8 -84 88 110 323 343 405 402 108 76 244 156
465 271 280 146 349 187 471 285 200 160 358 376 465 637 34 81 126 380 144
463 8 38 8 38 -93 11z"/>
<path d="M9922 11983 c122 -451 242 -679 487 -923 155 -154 236 -209 566 -382
241 -127 387 -215 478 -287 118 -94 295 -269 380 -376 44 -55 76 -89 72 -75
-4 14 -41 90 -81 170 -90 176 -165 275 -306 400 -135 120 -240 190 -455 307
-98 53 -207 114 -243 135 -316 192 -499 413 -631 764 -21 57 -39 106 -39 109
0 25 219 -73 332 -148 45 -31 124 -93 175 -139 85 -77 100 -86 195 -121 119
-43 144 -47 128 -18 -23 44 -123 169 -187 234 -162 166 -323 266 -589 367 -98
38 -273 90 -300 90 -7 0 0 -40 18 -107z"/>
<path d="M3155 11465 c-38 -18 -137 -51 -218 -74 -212 -59 -302 -95 -334 -136
-36 -45 -171 -419 -161 -444 2 -4 46 15 98 43 l95 51 40 100 c61 151 61 151
124 178 64 29 180 61 189 52 3 -3 -6 -31 -22 -61 -15 -31 -25 -59 -22 -62 18
-17 165 121 223 210 41 63 83 149 83 169 0 15 -21 9 -95 -26z"/>
<path d="M10410 11475 c48 -127 163 -273 278 -354 39 -27 39 -24 7 39 -14 27
-25 54 -25 60 0 17 55 11 139 -15 96 -31 110 -46 167 -184 31 -78 45 -99 78
-123 49 -36 156 -91 163 -85 8 9 -130 396 -155 435 -28 43 -126 84 -377 157
-88 26 -183 58 -211 71 -66 31 -76 31 -64 -1z"/>
<path d="M13610 11240 c0 -5 5 -10 11 -10 5 0 7 5 4 10 -3 6 -8 10 -11 10 -2
0 -4 -4 -4 -10z"/>
<path d="M2455 11203 c-219 -131 -453 -391 -580 -643 -30 -60 -105 -250 -105
-266 0 -4 37 42 81 102 143 192 354 422 482 526 62 50 95 85 111 117 26 52 78
192 73 197 -1 2 -30 -13 -62 -33z"/>
<path d="M11155 11199 c13 -61 66 -189 88 -213 12 -12 38 -33 57 -46 107 -73
360 -348 500 -543 46 -64 85 -115 88 -113 8 9 -70 203 -120 296 -54 103 -154
251 -220 327 -75 87 -243 226 -372 309 l-28 18 7 -35z"/>
<path d="M13618 10925 c-10 -11 4 -45 19 -45 9 0 13 8 11 22 -3 21 -19 34 -30
23z"/>
<path d="M13610 10806 c0 -7 8 -31 17 -52 l18 -39 3 39 c2 21 1 44 -2 52 -7
18 -36 18 -36 0z"/>
<path d="M12160 9856 c0 -3 22 -60 49 -128 64 -161 94 -258 124 -404 63 -298
62 -513 -3 -889 -36 -209 -42 -260 -43 -400 -1 -182 13 -272 70 -450 38 -122
142 -350 153 -338 14 15 60 168 60 196 0 16 -13 67 -30 113 -66 187 -93 417
-71 600 7 54 24 171 38 259 23 139 26 191 27 400 l0 240 -36 135 c-43 159 -82
263 -145 380 -68 129 -193 313 -193 286z"/>
<path d="M1437 9788 c-207 -293 -310 -578 -324 -898 -6 -155 5 -299 48 -577
44 -293 46 -363 15 -513 -14 -69 -42 -177 -62 -241 l-36 -116 28 -93 c16 -51
34 -95 41 -97 31 -11 167 356 200 538 11 64 16 146 16 254 0 163 1 157 -68
530 -20 113 -20 492 0 634 27 182 73 338 174 589 11 28 19 52 16 52 -2 0 -24
-28 -48 -62z"/>
<path d="M12075 9476 c-16 -59 2 -355 28 -482 38 -180 144 -494 168 -494 12 0
31 98 36 195 5 90 5 90 -42 200 -62 142 -107 285 -149 465 -28 119 -35 140
-41 116z"/>
<path d="M1567 9470 c-3 -8 -18 -69 -32 -135 -27 -117 -71 -253 -154 -467 -46
-119 -50 -159 -26 -265 22 -96 26 -106 35 -97 12 13 94 225 118 309 51 174 96
564 73 640 -6 20 -10 25 -14 15z"/>
<path d="M0 9014 c0 -16 7 -39 15 -50 14 -18 14 -17 15 12 0 16 -7 39 -15 50
-14 18 -14 17 -15 -12z"/>
<path d="M986 8943 c-69 -104 -174 -423 -202 -617 -24 -160 -15 -526 15 -681
45 -224 114 -453 213 -708 l69 -177 -41 -105 c-140 -359 -211 -619 -256 -940
-26 -181 -23 -471 6 -645 41 -250 147 -514 294 -732 68 -101 151 -196 162
-186 4 5 11 162 15 350 4 189 11 357 14 373 73 345 89 464 90 645 0 174 -10
242 -60 405 -21 71 -109 276 -142 330 -17 29 -28 13 -58 -93 l-27 -93 45 -137
c60 -181 70 -240 70 -407 0 -109 -6 -173 -27 -290 -49 -271 -67 -388 -74 -485
l-7 -95 -48 151 c-76 242 -88 312 -94 535 -12 428 63 783 272 1289 26 63 47
124 47 135 0 11 -28 85 -62 165 -113 264 -174 455 -227 705 -25 124 -27 144
-27 425 -1 245 2 311 17 390 17 88 59 521 52 528 -2 2 -15 -14 -29 -35z"/>
<path d="M12645 8918 c-8 -56 9 -251 43 -463 34 -219 37 -520 8 -710 -44 -288
-165 -676 -285 -913 l-30 -59 74 -187 c132 -331 194 -550 237 -836 49 -324 12
-724 -92 -1004 -27 -72 -35 -62 -45 54 -3 47 -22 171 -40 275 -48 272 -55 332
-55 468 0 141 21 254 76 421 l36 108 -26 92 c-15 50 -29 98 -32 106 -6 18 -80
-117 -129 -234 -19 -47 -48 -134 -63 -193 -25 -103 -27 -120 -27 -343 l0 -235
42 -205 c59 -289 63 -327 63 -648 l1 -287 55 60 c75 82 186 249 244 370 62
127 125 310 150 434 26 129 44 408 37 561 -14 289 -116 707 -260 1073 l-55
137 34 81 c76 180 190 536 241 754 27 118 28 125 28 430 0 344 -3 366 -66 574
-35 118 -138 361 -153 361 -2 0 -8 -19 -11 -42z"/>
<path d="M1045 8113 l-57 -108 12 -113 c7 -62 16 -114 20 -117 11 -7 97 138
110 186 11 39 10 77 -6 212 -3 26 -9 47 -13 47 -5 0 -34 -48 -66 -107z"/>
<path d="M12526 8173 c-3 -21 -6 -81 -6 -133 l0 -96 51 -82 c27 -45 54 -82 59
-82 11 0 21 49 29 148 l6 77 -48 90 c-71 131 -80 139 -91 78z"/>
<path d="M681 7887 c-42 -104 -92 -254 -106 -321 -18 -90 -22 -436 -5 -539 24
-155 149 -470 252 -640 l36 -59 40 104 40 103 -53 105 c-148 295 -195 549
-166 891 11 126 11 159 -4 264 -9 66 -18 121 -19 122 -1 1 -8 -12 -15 -30z"/>
<path d="M12943 7843 c-4 -37 -7 -234 -6 -436 l2 -368 46 -97 c53 -112 54
-111 86 25 18 75 21 120 22 298 1 256 -12 333 -90 540 -43 114 -50 119 -60 38z"/>
<path d="M826 7109 l-27 -60 25 -101 c14 -55 28 -103 30 -106 10 -10 32 18 56
69 l24 51 -33 99 c-19 55 -37 102 -41 104 -4 3 -20 -22 -34 -56z"/>
<path d="M12765 7083 c-38 -96 -36 -140 12 -243 46 -97 105 -266 136 -390 20
-79 21 -112 22 -440 0 -215 5 -367 11 -385 10 -29 11 -29 44 50 67 163 91 265
100 445 15 274 -11 452 -95 649 -58 135 -179 374 -192 378 -6 2 -23 -27 -38
-64z"/>
<path d="M12752 6602 l-33 -68 16 -45 c46 -121 58 -149 65 -149 10 0 50 94 50
117 0 25 -38 160 -53 189 -12 23 -14 21 -45 -44z"/>
<path d="M592 6553 c-67 -308 -51 -561 53 -837 53 -140 60 -137 80 29 12 102
12 136 -1 239 -17 146 -17 215 -3 343 l11 99 -56 112 c-31 62 -58 112 -59 112
-2 0 -13 -44 -25 -97z"/>
<path d="M1013 5714 c-4 -10 -8 -68 -8 -129 0 -108 1 -111 37 -175 38 -69 73
-108 85 -96 13 12 16 199 4 242 -6 23 -33 72 -61 110 -42 58 -50 65 -57 48z"/>
<path d="M12599 5679 c-68 -83 -79 -116 -78 -236 1 -162 4 -163 80 -54 l65 92
-8 91 c-5 50 -12 104 -16 121 l-8 29 -35 -43z"/>
<path d="M1390 5104 c-6 -32 -16 -75 -21 -94 -18 -68 -10 -90 90 -279 111
-206 142 -281 208 -486 36 -113 50 -145 74 -166 39 -34 157 -94 166 -85 10 9
-32 189 -74 321 -76 238 -202 497 -366 749 l-65 100 -12 -60z"/>
<path d="M12217 5108 c-97 -127 -290 -497 -362 -692 -38 -102 -101 -323 -112
-388 -7 -48 1 -48 86 -2 101 56 106 63 152 207 54 172 120 326 229 530 l90
168 -21 97 c-11 53 -24 101 -29 105 -4 5 -19 -6 -33 -25z"/>
<path d="M1372 4623 c-37 -194 -46 -285 -46 -493 0 -224 7 -280 56 -430 61
-187 152 -334 286 -462 75 -72 197 -168 213 -168 9 0 3 26 -28 125 -34 106
-47 130 -103 195 -80 94 -121 158 -162 252 -52 121 -76 225 -89 396 -10 121
-9 165 5 296 l17 154 -61 121 c-33 67 -62 121 -64 121 -2 0 -13 -48 -24 -107z"/>
<path d="M12195 4607 c-32 -65 -57 -127 -57 -140 0 -12 5 -71 11 -132 27 -273
3 -488 -77 -681 -37 -88 -80 -157 -160 -252 -34 -40 -68 -85 -76 -100 -18 -36
-68 -213 -62 -219 10 -10 91 46 168 114 179 159 288 340 353 588 23 84 28 128
32 280 3 103 1 227 -6 289 -12 118 -49 332 -61 355 -5 10 -26 -22 -65 -102z"/>
<path d="M1553 4044 c11 -145 3 -136 287 -294 102 -57 205 -117 230 -133 48
-32 231 -211 269 -262 l22 -30 -6 38 c-9 57 -66 185 -113 255 -84 122 -199
218 -389 321 -65 36 -154 88 -198 116 -44 28 -86 55 -94 60 -12 7 -13 -4 -8
-71z"/>
<path d="M12010 4064 c-36 -25 -119 -75 -185 -111 -173 -96 -214 -123 -290
-194 -81 -76 -131 -148 -190 -272 -75 -159 -70 -164 46 -43 117 123 225 199
449 320 208 111 235 133 249 196 15 71 14 150 -1 149 -7 0 -42 -20 -78 -45z"/>
<path d="M13630 3751 c0 -5 5 -13 10 -16 6 -3 10 -2 10 4 0 5 -4 13 -10 16 -5
3 -10 2 -10 -4z"/>
<path d="M1804 3654 c11 -75 113 -466 151 -581 57 -170 140 -325 263 -486 68
-89 199 -223 209 -213 2 2 -15 35 -38 72 -154 250 -270 571 -370 1022 -12 57
-31 115 -41 128 -18 22 -115 82 -162 100 -17 7 -18 4 -12 -42z"/>
<path d="M11800 3674 c-19 -8 -56 -29 -82 -45 -56 -36 -57 -39 -123 -323 -80
-339 -184 -614 -316 -832 -28 -47 -48 -88 -45 -92 12 -11 146 130 227 238 97
129 184 296 238 455 44 131 151 548 151 589 0 30 -3 30 -50 10z"/>
<path d="M2084 3453 c3 -10 10 -39 16 -65 19 -89 42 -142 111 -255 37 -62 135
-249 217 -415 180 -365 243 -459 420 -630 117 -113 244 -206 377 -278 l60 -33
-151 154 c-264 268 -361 416 -544 829 -50 113 -121 259 -158 325 -60 108 -80
134 -198 253 -124 125 -162 154 -150 115z"/>
<path d="M11506 3423 c-79 -68 -209 -215 -251 -282 -19 -32 -67 -125 -106
-207 -321 -672 -396 -790 -660 -1035 -60 -56 -108 -104 -105 -106 5 -6 93 39
161 82 84 54 244 186 311 256 122 129 226 287 325 495 34 71 90 189 125 262
35 74 93 178 129 232 36 54 76 127 89 162 23 62 50 178 42 185 -2 2 -29 -18
-60 -44z"/>
<path d="M11080 3012 c-8 -3 -52 -29 -97 -59 -184 -120 -346 -357 -409 -596
-14 -55 -24 -101 -21 -103 2 -2 28 35 57 83 84 139 160 232 283 349 70 66 124
126 137 153 25 51 72 172 68 176 -2 1 -10 0 -18 -3z"/>
<path d="M2560 2991 c0 -11 16 -55 36 -98 31 -70 49 -91 168 -208 108 -106
148 -153 214 -255 45 -69 90 -138 102 -155 l20 -30 0 26 c0 35 -62 215 -104
302 -82 169 -223 325 -367 406 -65 36 -69 37 -69 12z"/>
<path d="M10225 2069 c-144 -146 -324 -283 -495 -376 -98 -54 -244 -113 -515
-208 -253 -89 -412 -161 -521 -236 l-77 -53 34 -9 c19 -5 79 -7 134 -4 89 4
111 9 200 46 55 23 192 76 305 117 113 42 255 100 315 129 295 142 501 337
689 653 14 23 0 12 -69 -59z"/>
<path d="M3405 2100 c47 -92 214 -296 324 -395 75 -68 192 -148 296 -204 120
-64 135 -70 405 -166 102 -37 227 -87 279 -111 92 -43 96 -44 195 -44 106 0
146 6 146 21 0 16 -164 118 -264 164 -51 24 -194 78 -317 120 -287 99 -384
137 -489 193 -188 102 -328 204 -495 363 -79 76 -95 87 -80 59z"/>
<path d="M3820 1965 c0 -3 37 -23 83 -46 124 -62 199 -115 337 -234 69 -59
143 -116 165 -125 52 -23 153 -45 163 -36 4 4 -51 65 -123 135 -172 168 -264
222 -474 282 -97 27 -151 36 -151 24z"/>
<path d="M9709 1941 c-148 -42 -289 -116 -389 -203 -77 -67 -210 -208 -210
-221 0 -9 163 39 206 61 22 11 81 57 130 102 121 111 203 172 304 225 47 24
92 49 100 55 29 19 -42 10 -141 -19z"/>
<path d="M13585 1789 c-12 -19 5 -23 22 -6 16 16 16 17 1 17 -9 0 -20 -5 -23
-11z"/>
<path d="M13613 1743 c-28 -10 -12 -83 18 -83 15 0 19 7 19 34 0 35 -16 56
-37 49z"/>
<path d="M4840 1510 c56 -44 582 -351 934 -545 l158 -87 114 27 c63 14 116 31
119 35 7 11 -345 189 -730 370 -301 142 -282 134 -405 170 -185 54 -230 61
-190 30z"/>
<path d="M8720 1501 c-200 -56 -326 -110 -740 -317 -234 -117 -438 -218 -455
-224 -40 -15 -28 -21 114 -54 l113 -26 117 61 c199 107 1001 574 1001 585 0
10 -62 0 -150 -25z"/>
<path d="M4115 1283 c112 -101 370 -237 532 -280 90 -25 114 -27 288 -27 179
0 198 2 325 32 74 17 153 37 175 43 l39 11 -39 25 c-22 13 -71 40 -109 59
l-69 36 -86 -24 c-80 -21 -105 -23 -346 -23 -246 0 -264 1 -335 24 -101 32
-285 103 -348 135 -69 35 -75 32 -27 -11z"/>
<path d="M9482 1270 c-216 -103 -392 -143 -637 -144 -137 0 -180 4 -298 28
l-139 28 -86 -53 c-48 -29 -90 -57 -94 -63 -10 -16 35 -29 202 -61 172 -32
400 -44 506 -26 100 18 238 65 334 114 136 69 334 206 320 221 -3 3 -52 -17
-108 -44z"/>
<path d="M5760 1305 c-8 -2 -41 -7 -74 -10 l-59 -7 42 -24 c22 -14 82 -43 133
-66 77 -34 114 -44 223 -58 71 -10 158 -25 192 -34 155 -41 355 -133 508 -233
50 -33 98 -62 108 -66 12 -5 44 11 105 52 140 94 389 212 519 246 32 8 113 22
179 30 141 18 192 34 329 103 97 49 99 50 70 59 -16 4 -120 8 -230 7 -230 -1
-319 -15 -521 -85 -141 -48 -226 -88 -352 -164 l-92 -55 -73 48 c-153 104
-374 192 -592 237 -74 15 -377 30 -415 20z"/>
<path d="M6370 956 c-41 -22 -188 -73 -295 -103 -93 -26 -113 -28 -285 -28
-210 0 -254 9 -404 77 l-89 41 -110 -7 c-61 -4 -113 -9 -116 -11 -9 -10 44
-56 115 -100 158 -99 301 -147 489 -164 268 -24 520 29 834 175 l95 44 -38 26
c-87 60 -148 75 -196 50z"/>
<path d="M7225 959 c-16 -5 -54 -23 -83 -42 -42 -26 -50 -36 -40 -44 23 -19
226 -102 351 -144 169 -56 283 -72 497 -66 153 4 186 7 263 31 48 14 120 42
160 62 88 45 237 140 237 153 0 15 -29 21 -127 28 l-93 6 -101 -47 c-122 -58
-218 -76 -402 -76 -147 0 -271 24 -447 85 -162 57 -182 62 -215 54z"/>
<path d="M6997 713 l-158 -63 -157 60 c-110 43 -164 59 -182 55 -42 -11 -170
-73 -170 -83 0 -13 146 -79 315 -143 179 -68 215 -69 365 -12 58 22 163 66
233 98 145 66 145 57 3 114 l-91 36 -158 -62z"/>
<path d="M10200 160 c0 -5 5 -10 11 -10 5 0 7 5 4 10 -3 6 -8 10 -11 10 -2 0
-4 -4 -4 -10z"/>
</g>
</svg>
