<?xml version="1.0" standalone="no"?>
<!DOCTYPE svg PUBLIC "-//W3C//DTD SVG 20010904//EN"
 "http://www.w3.org/TR/2001/REC-SVG-20010904/DTD/svg10.dtd">
<svg version="1.0" xmlns="http://www.w3.org/2000/svg"
 width="593.000000pt" height="698.000000pt" viewBox="0 0 593.000000 698.000000"
 preserveAspectRatio="xMidYMid meet">

<g transform="translate(0.000000,698.000000) scale(0.100000,-0.100000)"
fill="#000000" stroke="none">
<path d="M0 6396 l0 -583 78 -35 c174 -80 303 -112 767 -193 429 -75 698 -181
853 -334 31 -31 67 -75 80 -98 l22 -42 -53 6 c-47 5 -56 2 -85 -22 -18 -15
-42 -46 -54 -68 -48 -95 5 -256 128 -386 57 -61 84 -80 168 -121 103 -50 216
-80 298 -80 99 1 215 46 265 104 13 14 27 26 32 26 5 0 14 -21 21 -47 18 -74
73 -168 161 -278 44 -55 92 -122 106 -150 75 -146 8 -305 -129 -305 -41 0 -54
5 -79 29 -19 20 -29 40 -29 60 0 34 30 71 56 71 14 0 14 3 4 15 -29 35 -84 7
-109 -54 -33 -78 22 -188 158 -321 48 -47 102 -107 120 -133 36 -53 87 -169
97 -223 3 -18 9 -34 13 -34 3 0 18 39 33 86 36 111 92 194 216 322 125 128
168 215 148 295 -14 57 -87 97 -116 62 -10 -12 -9 -15 7 -15 56 0 71 -83 24
-131 -24 -24 -38 -29 -76 -29 -81 0 -136 43 -156 123 -23 95 -1 161 101 292
154 197 152 322 -7 461 -48 42 -63 62 -63 82 0 43 13 55 34 31 24 -28 29 -20
17 32 -6 24 -11 64 -11 89 l-1 45 -34 -40 c-43 -49 -97 -152 -120 -225 -11
-34 -20 -108 -24 -190 l-6 -135 -27 46 c-15 25 -31 59 -34 76 -4 18 -16 36
-30 44 -31 16 -30 37 1 79 13 18 32 56 41 84 22 67 84 190 123 243 17 23 60
74 97 113 69 73 77 92 27 67 -53 -28 -147 -42 -191 -29 -126 38 -164 179 -74
276 58 62 136 73 183 27 51 -52 27 -133 -36 -117 -28 7 -37 -17 -9 -28 32 -12
56 -5 85 23 33 34 38 78 14 125 -20 38 -20 37 20 20 19 -7 55 -14 80 -14 l45
0 -25 -40 c-14 -22 -25 -43 -25 -46 0 -4 -12 -22 -26 -41 -55 -72 -185 -103
-225 -54 -23 29 -24 59 -3 90 14 19 23 22 50 18 42 -7 48 18 9 33 -56 21 -120
-36 -120 -107 0 -38 5 -49 33 -74 26 -24 41 -29 82 -29 59 0 131 25 197 70
101 69 170 107 228 125 63 21 146 26 180 12 16 -7 5 -13 -54 -28 -94 -24 -151
-58 -222 -130 -150 -152 -157 -345 -19 -502 23 -26 63 -60 88 -75 l47 -27 -37
-3 c-21 -2 -54 1 -75 7 -20 6 -39 9 -41 6 -2 -2 28 -48 66 -102 105 -148 169
-287 229 -503 2 -8 17 17 33 57 41 101 102 193 168 254 l57 52 -35 -6 c-19 -3
-72 -9 -118 -13 -71 -6 -82 -9 -77 -23 20 -49 17 -131 -4 -131 -5 0 -21 30
-36 68 -14 37 -46 101 -71 143 -24 42 -44 78 -44 81 0 4 21 -1 48 -10 31 -10
85 -15 157 -15 94 0 122 4 190 27 203 69 337 193 396 368 51 152 -17 289 -137
275 -24 -2 -44 -1 -44 3 0 17 73 117 108 148 170 150 458 256 892 327 487 79
691 144 867 276 l73 54 0 528 0 527 -2965 0 -2965 0 0 -584z m2513 -710 c79
-58 187 -62 397 -11 80 19 171 35 202 35 82 0 163 -33 215 -86 40 -41 46 -44
95 -44 126 0 210 -60 233 -168 7 -35 -1 -102 -13 -102 -4 0 -15 14 -24 30 -21
37 -88 69 -142 70 -53 0 -150 -26 -224 -62 -35 -16 -66 -27 -69 -24 -10 9 28
58 93 121 78 75 84 96 29 110 -22 6 -60 21 -84 34 -40 21 -54 23 -130 18 -91
-5 -163 -29 -264 -89 -63 -36 -140 -98 -133 -106 3 -2 25 2 48 11 24 8 59 18
78 21 30 4 32 3 15 -7 -50 -31 -124 -118 -163 -193 -62 -120 -86 -231 -79
-369 11 -213 72 -363 217 -535 25 -30 54 -68 64 -84 l18 -29 27 40 c14 22 45
64 69 93 54 67 56 101 6 165 -45 59 -57 92 -49 132 7 41 16 42 34 2 7 -16 31
-42 52 -56 45 -30 79 -93 79 -149 0 -52 -36 -127 -94 -194 -63 -73 -92 -124
-109 -190 l-15 -55 -12 45 c-18 68 -40 105 -134 225 -98 126 -155 227 -186
335 -12 41 -24 82 -27 90 -3 10 -10 4 -23 -20 -32 -62 -158 -166 -177 -146 -3
3 9 22 26 43 49 61 82 146 107 276 41 209 56 269 85 335 l29 64 -27 -8 c-42
-13 -145 -10 -173 6 -24 13 -23 14 45 35 39 12 84 29 100 38 29 15 85 60 85
68 0 2 -28 4 -63 5 -34 0 -80 7 -102 14 -49 16 -120 72 -140 110 -21 41 -19
57 4 36 59 -54 222 -73 332 -39 l54 16 -35 7 c-50 10 -111 37 -138 63 -35 32
-66 97 -46 97 3 0 20 -11 37 -24z m681 -148 c39 -12 73 -23 75 -25 10 -7 -58
-54 -98 -68 -52 -18 -86 -11 -124 23 -27 26 -28 26 -90 13 -34 -8 -73 -16 -87
-18 l-25 -5 25 21 c37 31 169 80 214 81 22 0 71 -10 110 -22z m-401 -490 c23
-11 63 -24 88 -27 l47 -6 -41 -63 c-36 -54 -43 -60 -54 -46 -10 14 -14 14 -32
1 -12 -8 -37 -35 -57 -60 -27 -35 -35 -53 -32 -79 5 -51 35 -50 55 1 18 46 27
50 43 20 9 -16 7 -27 -7 -51 -60 -102 -153 -76 -153 43 0 59 33 121 92 173 49
42 50 44 29 56 -18 9 -27 7 -51 -10 -16 -11 -41 -35 -55 -53 l-26 -32 5 50 c3
28 7 68 9 90 3 22 10 53 16 69 l12 29 35 -42 c20 -23 55 -51 77 -63z m167
-608 c0 -10 -8 -28 -18 -41 l-19 -22 -7 52 c-8 64 0 83 26 52 10 -13 18 -31
18 -41z m-56 -556 c23 -89 117 -164 207 -164 16 0 29 -4 29 -8 0 -4 -29 -37
-65 -72 -62 -61 -154 -183 -168 -222 -11 -29 -21 -21 -62 49 -21 36 -79 108
-128 160 l-89 93 43 0 c87 1 167 62 200 153 15 44 24 47 33 11z"/>
<path d="M2878 3758 c-20 -30 -41 -52 -69 -72 -20 -14 -19 -15 24 -79 25 -35
47 -71 51 -78 5 -12 7 -12 12 0 4 7 26 42 50 77 l44 64 -41 37 c-23 21 -44 46
-48 56 -7 18 -8 17 -23 -5z"/>
<path d="M5881 5753 c-79 -62 -279 -151 -503 -223 -326 -105 -364 -119 -464
-166 -232 -110 -356 -231 -414 -404 -18 -53 -21 -82 -18 -161 5 -126 40 -202
130 -283 75 -68 146 -97 236 -97 96 0 157 24 224 91 75 75 102 160 82 258 -9
43 -69 111 -118 133 -40 18 -41 19 -11 19 70 0 142 -55 187 -144 33 -65 29
-165 -11 -241 -50 -97 -116 -160 -202 -190 -224 -81 -459 20 -572 245 -45 91
-57 165 -50 316 6 113 -9 200 -43 248 -8 11 -14 26 -14 34 0 13 207 118 216
109 4 -4 -25 -32 -96 -89 -33 -27 -33 -28 -20 -70 23 -77 22 -75 28 -58 11 31
81 127 123 168 61 60 158 129 254 180 87 46 86 46 -115 -5 -195 -50 -387 -132
-483 -207 -17 -13 -16 -17 17 -61 73 -96 84 -235 29 -373 -37 -94 -65 -135
-152 -226 l-76 -79 53 29 c65 35 163 122 192 170 12 19 25 32 28 29 3 -3 13
-34 23 -70 22 -86 60 -147 141 -229 38 -38 67 -70 66 -72 -2 -2 -57 10 -123
27 -137 33 -300 40 -393 15 -214 -57 -378 -224 -446 -456 -9 -30 -25 -124 -36
-210 -26 -200 -43 -282 -81 -394 -59 -172 -186 -373 -343 -541 -36 -39 -134
-175 -164 -227 -16 -29 -38 -79 -48 -111 -10 -31 -21 -57 -24 -57 -3 0 -14 24
-23 53 -29 90 -104 209 -223 351 -145 174 -180 222 -236 321 -94 167 -140 321
-173 580 -36 282 -87 408 -215 537 -75 75 -189 138 -288 159 -80 16 -279 7
-377 -18 -44 -12 -93 -24 -110 -27 l-30 -7 34 28 c100 80 167 179 192 283 7
30 16 58 19 63 3 4 21 -13 39 -38 38 -53 135 -136 191 -165 22 -11 41 -20 43
-20 2 0 -34 38 -79 85 -191 196 -237 440 -112 598 l30 37 -24 19 c-89 73 -266
149 -473 202 -82 21 -157 39 -165 38 -8 0 17 -16 56 -37 146 -77 273 -188 339
-294 31 -50 45 -60 45 -31 0 9 5 31 12 49 11 31 10 35 -18 56 -55 43 -99 86
-93 92 5 6 183 -76 206 -95 8 -7 3 -26 -20 -71 l-32 -61 -1 -181 c0 -204 -9
-239 -83 -352 -131 -203 -357 -273 -566 -176 -142 67 -234 227 -205 358 26
117 115 205 207 204 26 0 25 -2 -13 -19 -71 -32 -124 -119 -124 -204 0 -63 32
-130 88 -187 73 -72 130 -94 240 -89 134 7 250 86 313 214 62 128 61 249 -5
389 -89 189 -285 322 -656 441 -375 121 -444 146 -533 191 l-67 34 0 -40 c0
-37 3 -41 48 -63 26 -14 71 -32 100 -41 28 -10 52 -21 52 -25 0 -4 -10 -16
-21 -27 -70 -62 -77 -212 -12 -264 34 -26 48 -26 29 2 -21 29 -21 110 -1 163
30 78 125 112 202 72 58 -30 75 -105 32 -139 -46 -38 -94 -13 -71 36 13 30 1
49 -32 49 -68 0 -93 -96 -47 -181 17 -32 94 -81 137 -87 43 -6 110 -13 134
-14 8 -1 -8 -16 -35 -35 -66 -44 -136 -120 -163 -176 -23 -50 -52 -152 -52
-187 0 -13 -4 -23 -9 -23 -19 0 -91 97 -138 183 -51 95 -73 121 -122 150 l-31
18 0 -44 c0 -29 5 -47 14 -50 22 -9 80 -97 63 -97 -7 0 -17 4 -22 9 -6 5 -20
12 -32 16 -21 6 -23 3 -23 -29 0 -26 5 -36 20 -41 22 -7 133 -87 164 -119 79
-79 176 -232 176 -276 0 -6 -47 -10 -127 -10 -71 0 -152 -3 -180 -6 l-53 -7 0
-39 c0 -37 2 -40 22 -35 47 12 247 19 313 12 73 -7 75 -8 155 -103 51 -61 167
-153 255 -202 l60 -34 -75 -12 c-41 -6 -111 -23 -155 -37 -127 -40 -383 -104
-465 -117 -115 -18 -110 -15 -110 -71 0 -34 4 -49 14 -49 32 0 228 55 426 119
256 83 348 100 455 83 127 -20 205 -73 205 -139 l0 -37 -27 26 c-93 87 -228
87 -303 1 -26 -29 -31 -42 -28 -76 2 -33 9 -44 30 -56 22 -13 29 -13 42 -2 15
13 15 15 -4 28 -53 38 12 113 97 113 55 0 98 -24 118 -66 50 -105 -34 -227
-224 -328 -115 -60 -226 -85 -378 -86 -154 0 -240 18 -406 85 -16 7 -17 -78
-17 -1689 l0 -1696 2965 0 2965 0 0 1735 c0 954 -2 1735 -5 1735 -2 0 -26 -13
-52 -28 -70 -41 -208 -99 -283 -118 -180 -46 -414 -29 -567 41 -235 107 -346
289 -237 385 28 24 44 30 82 30 49 0 108 -27 118 -55 10 -24 -4 -63 -24 -68
-14 -3 -12 -6 10 -17 25 -12 30 -11 48 5 23 20 27 74 8 108 -16 32 -58 65 -97
78 -67 22 -195 -13 -221 -61 -16 -30 -30 -24 -30 14 0 26 8 41 35 65 53 46 88
61 173 73 108 16 217 -5 467 -87 230 -76 372 -113 465 -121 36 -3 75 -7 88
-10 21 -4 22 -1 22 50 l0 54 -67 7 c-178 16 -351 53 -613 130 -63 19 -148 40
-187 47 -40 7 -73 16 -73 20 0 4 4 8 9 8 6 0 57 32 115 70 72 49 131 98 190
163 l86 92 152 -1 c92 0 196 -7 261 -17 59 -9 112 -17 117 -17 6 0 10 18 10
40 0 22 -3 40 -7 40 -5 0 -62 7 -128 15 -126 16 -327 21 -359 9 -17 -6 -18 -4
-12 21 26 105 140 254 260 341 48 35 144 80 229 108 19 6 24 56 6 56 -25 0
-136 -33 -172 -51 -53 -28 -63 -20 -30 23 36 46 82 78 152 104 53 20 56 24 59
58 3 36 2 36 -25 30 -61 -14 -171 -66 -195 -92 -15 -15 -52 -70 -83 -122 -67
-111 -123 -183 -136 -175 -5 4 -9 19 -9 35 0 42 -45 166 -77 212 -35 52 -88
104 -136 136 -20 14 -35 27 -32 30 3 3 35 7 73 9 79 5 139 31 181 78 53 61 52
148 -1 188 -23 17 -31 19 -53 9 -29 -13 -32 -28 -9 -54 37 -40 -37 -67 -76
-28 -48 48 -12 128 67 149 124 34 223 -104 169 -234 -18 -42 -7 -44 34 -7 58
51 54 176 -7 243 l-36 40 44 16 c24 10 86 38 137 63 70 35 92 42 92 31 0 -19
-57 -141 -65 -141 -4 0 -18 9 -32 20 -14 11 -36 20 -49 20 l-24 0 22 -42 c12
-22 24 -65 26 -95 3 -34 9 -52 16 -50 22 7 126 163 156 234 23 55 30 87 30
137 0 36 -3 66 -7 66 -5 0 -23 -12 -42 -27z m-5107 -424 c8 -8 -1 -9 -34 -5
-25 3 -86 5 -135 5 l-90 1 -2 50 -1 49 126 -44 c69 -25 131 -50 136 -56z
m4496 44 l0 -48 -135 -1 c-74 0 -132 3 -127 8 11 11 223 87 245 87 14 1 17 -8
17 -46z m190 -69 c0 -40 -56 -87 -119 -102 -29 -7 -110 -12 -180 -12 -81 0
-148 -5 -185 -15 -135 -35 -244 -113 -294 -210 -34 -67 -41 -172 -17 -244 22
-68 88 -127 152 -137 49 -7 113 7 132 30 10 12 5 13 -29 5 -112 -25 -210 66
-210 195 0 71 17 113 70 170 64 69 136 100 235 100 70 1 89 -3 150 -32 81 -38
134 -86 175 -158 113 -195 64 -431 -130 -625 -90 -90 -170 -143 -366 -243 -81
-41 -126 -71 -164 -111 -30 -29 -57 -52 -61 -50 -4 3 -10 17 -13 32 -4 16 -25
67 -48 116 -23 48 -39 90 -35 93 3 3 29 1 56 -6 l51 -12 -7 -56 -6 -56 41 35
c22 19 84 57 137 85 l96 51 -118 1 c-106 0 -134 4 -278 42 -240 63 -302 73
-435 67 -63 -3 -128 -9 -145 -12 l-30 -7 23 17 c13 9 51 29 85 43 58 25 72 27
207 26 137 -1 154 -3 304 -43 199 -51 292 -60 406 -37 225 46 378 207 388 411
3 64 0 91 -17 136 -27 70 -79 132 -145 169 -91 53 -220 36 -288 -36 -63 -67
-65 -158 -4 -206 30 -25 55 -24 33 0 -26 29 -21 70 13 104 28 28 36 30 78 25
121 -13 150 -176 48 -280 -120 -122 -328 -81 -415 83 -82 154 -52 327 79 460
69 71 143 113 244 139 66 18 110 21 258 21 184 0 227 7 257 43 18 23 21 21 21
-9z m-5110 7 c0 -5 20 -17 45 -27 38 -14 67 -16 177 -12 152 7 232 -2 330 -36
135 -47 227 -126 286 -245 34 -69 37 -80 36 -165 -1 -70 -6 -102 -22 -138 -24
-53 -88 -128 -136 -157 -105 -65 -255 -37 -326 60 -76 105 -27 259 82 259 31
0 46 -7 70 -30 26 -27 30 -36 25 -67 -4 -20 -12 -40 -19 -45 -10 -6 -9 -8 4
-8 9 0 29 10 44 23 20 18 28 35 31 73 6 58 -9 96 -57 140 -89 84 -260 69 -351
-32 -168 -187 -84 -498 167 -616 147 -69 283 -72 522 -13 180 45 286 59 382
52 89 -7 160 -27 215 -63 l40 -25 -35 6 c-185 31 -245 27 -514 -41 -199 -50
-322 -67 -408 -55 -32 4 -58 6 -58 5 0 -2 41 -24 92 -50 50 -26 111 -63 135
-81 24 -18 46 -33 49 -33 4 0 4 22 1 49 l-6 50 50 10 c28 6 54 11 59 11 5 0
-3 -26 -19 -57 -16 -32 -39 -85 -52 -118 -12 -33 -24 -63 -28 -67 -3 -4 -31
17 -60 47 -41 42 -87 72 -190 125 -75 38 -165 88 -200 111 -83 54 -188 158
-240 238 -152 236 -98 536 116 648 147 77 287 64 397 -37 60 -56 86 -111 86
-185 0 -77 -29 -137 -83 -173 -33 -22 -50 -26 -99 -25 -55 1 -58 0 -39 -14 28
-19 81 -27 124 -19 46 9 121 76 141 127 28 69 22 186 -11 253 -22 43 -99 122
-147 150 -91 53 -160 69 -341 76 -185 8 -239 21 -275 68 -24 29 -26 62 -5 62
8 0 15 -4 15 -9z m1295 -1138 c15 -14 22 -15 68 -3 154 40 309 -26 381 -161
28 -51 28 -53 6 -34 -13 11 -33 30 -45 42 -31 30 -110 68 -173 83 -137 32
-287 -40 -348 -168 -23 -46 -28 -71 -28 -134 -1 -42 -5 -74 -10 -71 -19 12
-36 76 -36 135 0 73 35 157 93 221 25 29 33 45 29 64 -8 40 32 57 63 26z
m2555 2 c10 -12 10 -18 0 -30 -10 -12 -3 -25 36 -72 26 -32 55 -76 65 -98 31
-67 22 -200 -15 -250 -13 -18 -14 -13 -9 50 6 85 -20 166 -74 226 -41 45 -136
95 -197 104 -89 14 -218 -31 -296 -102 -49 -43 -51 -31 -7 33 66 96 160 144
282 144 34 0 77 -5 94 -11 27 -10 35 -9 49 5 20 20 56 21 72 1z m-2714 -37
c-15 -18 -41 -62 -59 -98 -29 -59 -32 -73 -32 -160 0 -88 3 -101 33 -162 61
-123 176 -186 305 -167 88 13 147 74 147 151 0 52 -16 66 -23 20 -13 -77 -81
-123 -162 -108 -79 15 -148 131 -130 218 52 240 382 271 524 50 48 -76 71
-155 81 -282 6 -78 19 -148 41 -220 43 -142 31 -206 -58 -310 -33 -38 -115
-100 -134 -100 -4 0 2 28 13 63 26 82 22 230 -8 297 l-21 45 -7 -73 c-14 -137
-60 -230 -158 -316 -56 -49 -177 -116 -211 -116 -18 0 -19 1 -3 23 70 97 108
216 104 324 l-3 78 -39 -74 c-89 -174 -258 -289 -470 -321 -43 -6 -95 -9 -115
-5 l-36 7 30 21 c17 12 61 51 98 86 54 52 78 85 118 164 47 94 61 147 39 147
-5 0 -10 -3 -10 -8 0 -14 -104 -117 -160 -159 -61 -46 -170 -103 -243 -127
-114 -38 -305 -30 -450 19 -112 38 -113 48 -13 74 103 27 251 100 343 169 170
127 289 286 405 542 l16 35 6 -40 c25 -149 59 -218 150 -307 l69 -67 -7 -68
c-13 -122 -50 -231 -110 -319 -14 -21 -24 -40 -21 -42 11 -12 155 79 209 132
53 53 118 158 105 170 -2 2 -18 6 -35 9 -28 5 -31 3 -31 -18 0 -30 -42 -101
-82 -139 -37 -36 -38 -31 -6 59 14 39 25 93 25 122 0 28 4 55 10 58 5 3 27 1
47 -4 21 -6 72 -12 114 -14 42 -2 81 -7 86 -10 13 -8 38 -140 38 -202 0 -27
-3 -70 -7 -95 l-8 -45 45 50 c54 59 83 130 91 225 7 73 3 81 -31 56 -15 -10
-19 -24 -17 -57 1 -24 -4 -66 -11 -94 l-14 -50 -7 70 c-4 39 -12 86 -17 105
-14 54 -12 58 34 81 23 12 59 38 80 58 l38 36 25 -30 c59 -71 114 -212 114
-292 0 -24 4 -43 8 -43 21 0 47 126 46 225 -1 110 -17 163 -79 265 -19 30 -42
75 -51 100 -45 117 -117 181 -214 188 -50 4 -66 1 -103 -21 -65 -39 -97 -122
-67 -178 14 -26 62 -49 88 -42 25 6 30 23 7 23 -23 0 -47 44 -40 73 25 100
178 95 232 -6 22 -41 22 -141 0 -183 -25 -48 -102 -111 -159 -130 -38 -12 -69
-15 -121 -11 -100 9 -179 50 -255 132 -69 75 -91 131 -99 250 -6 93 7 168 42
241 22 45 31 53 73 67 26 9 55 16 66 16 16 1 16 -3 -8 -31z m2893 9 c15 -7 38
-37 56 -72 29 -57 30 -65 30 -185 -1 -106 -4 -134 -24 -182 -26 -68 -104 -157
-168 -195 -50 -29 -137 -53 -195 -53 -51 0 -143 36 -184 73 -98 85 -103 234
-11 307 63 50 164 24 182 -47 7 -29 -17 -73 -40 -73 -21 0 -19 -18 4 -25 49
-15 101 35 101 100 0 81 -72 145 -165 145 -98 0 -158 -47 -220 -173 -25 -51
-63 -125 -84 -165 -52 -98 -68 -184 -53 -291 6 -44 19 -97 28 -118 l17 -38 8
63 c4 35 13 80 20 100 17 53 77 168 99 187 18 17 21 15 66 -24 25 -22 62 -46
81 -53 33 -12 35 -14 28 -48 -4 -19 -10 -75 -14 -125 -4 -49 -10 -83 -13 -75
-18 41 -29 108 -24 145 6 38 4 43 -19 53 -34 15 -40 0 -31 -76 8 -69 62 -185
107 -227 l32 -30 -8 30 c-11 49 -6 187 11 250 8 33 16 61 18 62 2 2 37 6 77 8
41 2 95 10 121 18 26 8 49 12 52 9 4 -3 6 -24 6 -46 0 -48 21 -135 44 -188 22
-50 5 -48 -37 5 -41 50 -67 99 -67 125 0 15 -6 18 -30 14 -17 -2 -33 -8 -36
-13 -9 -14 47 -109 91 -153 45 -46 136 -109 191 -132 39 -16 39 -18 -7 51 -50
74 -109 314 -91 365 3 8 33 42 66 75 73 72 110 141 133 247 l17 79 47 -96 c96
-193 222 -353 359 -457 84 -64 253 -148 358 -178 45 -13 82 -27 82 -31 0 -10
-90 -47 -162 -66 -46 -13 -100 -17 -198 -17 -122 1 -142 3 -210 28 -118 44
-223 112 -316 204 -82 81 -84 83 -79 50 8 -50 79 -187 126 -243 22 -27 68 -70
100 -95 l59 -45 -27 -7 c-64 -18 -222 16 -339 73 -92 45 -208 160 -249 246
-17 35 -33 63 -37 63 -14 0 -8 -131 8 -193 17 -68 44 -126 80 -174 13 -17 24
-34 24 -37 0 -27 -131 32 -207 92 -106 84 -160 188 -180 342 l-9 65 -19 -55
c-26 -71 -27 -233 -2 -299 10 -24 15 -46 12 -49 -20 -21 -151 102 -191 178
-36 72 -37 136 0 252 17 55 30 128 36 196 9 110 35 210 71 268 28 46 114 123
162 144 49 23 149 26 209 8 56 -17 143 -102 157 -153 6 -22 11 -52 11 -66 0
-63 -48 -147 -100 -174 -85 -44 -200 19 -200 110 0 23 -3 27 -10 15 -14 -22
-12 -77 4 -108 34 -66 90 -94 184 -93 151 2 268 116 297 288 13 82 -32 221
-95 292 -16 18 -30 36 -30 39 0 8 82 -8 109 -21z m-2290 -611 c16 -33 31 -79
35 -101 7 -45 4 -42 -45 40 -16 28 -38 62 -50 76 -18 23 -19 29 -8 47 18 28
32 15 68 -62z m1671 63 c10 -17 7 -27 -17 -57 -15 -20 -43 -64 -61 -97 l-33
-60 6 45 c6 47 71 190 86 190 4 0 13 -9 19 -21z m-1318 -669 c25 -36 62 -83
82 -105 54 -60 80 -118 73 -167 -12 -90 -44 -76 -106 45 -24 48 -47 87 -50 87
-4 0 -15 -23 -25 -50 -39 -109 -152 -241 -250 -293 l-41 -22 28 -3 c43 -5 129
34 172 78 42 43 55 40 55 -16 0 -38 -41 -78 -115 -114 -64 -31 -181 -39 -256
-16 -56 16 -125 53 -116 62 3 3 31 12 64 20 179 47 359 224 401 394 6 25 14
76 18 113 4 37 10 64 14 60 3 -4 27 -37 52 -73z m984 -110 c24 -85 71 -163
134 -227 72 -72 151 -120 254 -154 l80 -26 -26 -17 c-80 -53 -217 -70 -314
-41 -75 23 -142 77 -150 120 -10 57 7 61 62 15 51 -42 128 -74 166 -68 20 3
17 7 -22 27 -54 29 -153 121 -188 176 -14 22 -38 71 -52 108 l-27 68 -33 -63
c-78 -148 -99 -166 -120 -102 -19 57 -5 97 66 185 36 44 81 106 102 136 l37
56 8 -69 c4 -38 14 -94 23 -124z m-56 -228 c0 -13 -10 -45 -21 -73 -21 -47
-21 -50 -3 -76 27 -42 94 -103 202 -184 238 -180 317 -274 368 -438 22 -68 29
-218 14 -293 -23 -121 -102 -268 -188 -351 l-39 -38 13 68 c18 90 17 139 -2
230 -31 149 -77 217 -302 443 -96 96 -194 202 -218 236 -59 83 -111 195 -129
279 -19 90 -19 127 1 173 l16 37 8 -30 c4 -16 15 -66 25 -110 21 -95 58 -181
113 -261 45 -66 159 -194 173 -194 5 0 9 14 9 30 0 41 22 81 62 115 l33 28
-30 21 c-99 70 -255 251 -255 296 0 10 15 27 33 37 20 13 44 41 62 77 l30 56
12 -27 c7 -16 12 -38 13 -51z m-901 14 c17 -30 44 -63 61 -72 16 -10 30 -26
30 -35 0 -44 -157 -227 -255 -296 l-30 -21 27 -21 c38 -30 68 -83 68 -120 0
-17 4 -31 8 -31 13 0 122 117 164 175 69 97 114 208 138 343 7 39 17 72 21 72
13 0 29 -62 29 -114 0 -70 -49 -221 -98 -304 -51 -86 -162 -213 -282 -322 -97
-89 -202 -216 -239 -287 -11 -23 -28 -68 -36 -100 -17 -64 -20 -226 -5 -288 5
-22 7 -41 5 -44 -8 -7 -86 85 -130 155 -25 39 -57 104 -73 145 -24 67 -27 87
-26 199 0 109 3 134 26 198 58 161 143 260 369 429 175 131 231 195 200 229
-22 23 -32 83 -21 123 6 23 12 41 14 41 2 0 18 -24 35 -54z m356 -242 c14 -32
32 -94 42 -136 10 -43 21 -78 24 -78 4 0 9 19 13 43 9 55 65 218 80 235 10 10
15 -1 25 -55 12 -62 12 -74 -8 -136 -30 -98 -42 -183 -42 -305 0 -180 32 -308
136 -532 73 -158 87 -208 86 -311 0 -106 -36 -207 -136 -387 -92 -167 -117
-219 -135 -279 -15 -49 -24 -48 -41 5 -19 57 -58 138 -118 242 -186 324 -197
469 -55 752 98 196 129 340 122 565 -5 124 -10 162 -33 231 -25 80 -26 87 -14
153 7 41 16 66 21 61 5 -5 20 -36 33 -68z m-255 -22 c-34 -77 -82 -153 -128
-204 l-25 -28 -22 37 -22 36 92 92 c51 51 100 106 110 124 32 63 28 20 -5 -57z
m645 46 c16 -24 64 -78 108 -122 l80 -78 -17 -35 c-9 -19 -22 -33 -29 -30 -35
11 -154 205 -172 280 -10 38 -2 34 30 -15z m-67 -323 c28 -38 91 -115 142
-170 50 -55 115 -131 144 -170 248 -329 200 -687 -128 -949 -32 -26 -60 -45
-63 -42 -3 2 6 33 20 68 36 91 51 177 44 262 -8 93 -30 160 -89 271 -88 166
-139 279 -164 365 -42 144 -44 380 -3 487 l10 27 18 -39 c10 -22 41 -71 69
-110z m-407 88 c21 -74 19 -350 -4 -433 -22 -79 -82 -211 -153 -340 -124 -222
-141 -379 -64 -577 15 -40 25 -73 21 -73 -17 0 -138 105 -191 165 -114 129
-168 282 -157 444 13 188 93 337 303 560 73 77 176 214 202 269 9 17 19 32 23
32 3 0 13 -21 20 -47z"/>
<path d="M1206 3605 c-18 -28 -19 -45 -3 -99 l12 -39 28 40 28 40 -22 42 c-11
22 -22 41 -24 41 -1 0 -10 -11 -19 -25z"/>
<path d="M1096 3435 c-55 -73 -68 -113 -40 -122 7 -2 35 19 63 48 43 43 51 58
51 88 0 69 -13 67 -74 -14z"/>
<path d="M1276 3458 l-29 -33 37 -3 c44 -4 76 21 59 47 -17 27 -36 23 -67 -11z"/>
<path d="M1187 3362 c-15 -15 -27 -33 -27 -38 0 -24 -172 -130 -240 -148 l-25
-7 25 18 c60 44 90 76 90 99 0 13 -3 24 -6 24 -3 0 -29 -20 -57 -44 -29 -24
-95 -71 -147 -105 l-94 -61 49 0 c119 1 271 54 374 132 71 54 140 117 152 140
9 16 5 18 -29 18 -29 0 -45 -7 -65 -28z"/>
<path d="M4533 3592 l-22 -39 26 -41 c15 -23 31 -38 35 -34 4 4 10 30 13 57 6
41 3 55 -12 73 l-18 24 -22 -40z"/>
<path d="M4616 3498 c-16 -62 -8 -88 45 -139 28 -27 57 -49 65 -49 26 0 15 51
-19 94 -19 23 -45 58 -59 79 -24 36 -26 37 -32 15z"/>
<path d="M4447 3480 c-18 -17 -18 -20 -2 -44 14 -21 22 -24 48 -19 18 3 34 8
37 10 2 2 -12 19 -30 37 -34 33 -36 33 -53 16z"/>
<path d="M4507 3364 c28 -44 182 -161 261 -199 82 -41 180 -65 261 -65 l54 0
-89 54 c-49 30 -116 77 -151 105 -34 28 -64 51 -67 51 -3 0 -6 -11 -6 -24 0
-18 15 -37 55 -67 30 -24 52 -45 50 -47 -15 -15 -242 121 -254 152 -12 32 -61
66 -95 66 l-36 0 17 -26z"/>
<path d="M3528 2124 c-68 -36 -77 -151 -15 -202 11 -10 13 -3 9 44 -4 50 -2
58 24 85 18 19 38 29 57 29 34 0 27 14 -20 42 -25 14 -31 15 -55 2z"/>
<path d="M3598 1999 c-24 -13 -23 -29 1 -29 10 0 24 -7 31 -15 20 -24 2 -54
-41 -66 -42 -13 -46 -18 -27 -37 24 -24 87 -9 115 27 7 9 13 33 13 53 0 28 -6
41 -26 57 -30 23 -41 25 -66 10z"/>
<path d="M3750 1903 c0 -41 -35 -92 -76 -109 -34 -14 -35 -16 -20 -37 83 -118
113 -180 143 -297 l9 -35 20 55 c36 104 21 285 -32 392 -29 58 -44 68 -44 31z
m39 -147 c6 -25 11 -64 11 -88 l0 -43 -26 45 c-14 25 -33 53 -41 63 -15 16
-14 19 7 42 13 14 27 25 31 25 3 0 12 -20 18 -44z"/>
<path d="M2183 2113 c-28 -19 -29 -33 -3 -33 11 0 34 -13 52 -29 30 -26 32
-33 30 -81 -2 -46 0 -51 13 -40 8 7 20 29 26 50 30 100 -45 184 -118 133z"/>
<path d="M2108 1983 c-47 -53 -7 -143 64 -143 30 1 68 19 68 33 0 3 -15 9 -34
13 -19 3 -42 14 -52 25 -16 17 -16 20 0 45 11 16 23 23 33 20 9 -4 13 -1 11 6
-7 21 -72 22 -90 1z"/>
<path d="M2003 1899 c-65 -105 -87 -294 -49 -414 l19 -60 14 50 c29 105 56
165 103 231 47 64 53 84 27 84 -29 0 -69 47 -81 94 l-13 49 -20 -34z m41 -131
c8 -14 7 -23 -4 -40 -8 -13 -25 -43 -37 -67 l-23 -44 0 48 c0 99 33 152 64
103z"/>
<path d="M2887 1650 c-3 -8 -15 -46 -27 -85 -12 -38 -51 -131 -85 -205 -105
-224 -107 -313 -15 -492 26 -51 65 -128 86 -170 22 -42 41 -77 44 -77 3 0 21
32 41 72 20 40 59 115 86 167 95 180 93 276 -7 490 -49 104 -72 165 -115 305
-1 6 -5 3 -8 -5z m41 -278 c18 -48 32 -105 32 -128 0 -41 -53 -164 -70 -164
-5 0 -22 28 -39 62 -37 73 -41 139 -12 196 10 20 24 56 31 80 7 23 16 42 19
42 3 0 21 -40 39 -88z m95 -301 c-3 -30 -13 -77 -23 -104 -22 -58 -100 -197
-111 -197 -4 0 -30 42 -58 93 -62 115 -84 194 -72 257 8 40 10 42 17 21 18
-59 98 -191 115 -191 14 0 77 103 102 167 19 50 22 54 28 33 3 -14 4 -50 2
-79z"/>
<path d="M3088 1998 c-9 -99 39 -309 96 -417 l23 -44 22 36 c23 38 88 70 126
63 51 -9 40 10 -98 174 -49 58 -106 131 -127 163 l-39 57 -3 -32z m79 -157 c6
-10 32 -44 57 -75 25 -30 46 -59 46 -63 0 -12 -61 -44 -71 -38 -9 6 -59 161
-59 183 0 18 14 14 27 -7z"/>
<path d="M3315 1550 c-75 -30 -62 -174 12 -146 14 6 15 9 4 15 -17 11 -10 51
12 65 24 15 71 -12 75 -43 7 -49 -21 -86 -81 -105 -15 -5 -16 -9 -7 -26 14
-26 26 -25 66 5 18 14 35 25 38 25 11 0 -20 -70 -42 -95 -21 -24 -23 -31 -14
-69 6 -22 14 -70 18 -105 l7 -64 34 68 c66 131 77 269 32 391 -30 79 -89 111
-154 84z"/>
<path d="M2651 1971 c-23 -34 -82 -109 -131 -166 -83 -98 -130 -158 -130 -167
0 -2 15 -2 33 0 49 6 104 -21 128 -63 12 -20 25 -33 29 -28 14 14 62 136 80
203 23 80 43 216 38 255 -3 27 -5 26 -47 -34z m-11 -123 c0 -32 -57 -188 -69
-188 -3 1 -19 11 -34 24 l-28 22 56 70 c30 38 55 72 55 77 0 4 5 7 10 7 6 0
10 -6 10 -12z"/>
<path d="M2372 1547 c-82 -46 -111 -242 -58 -399 14 -42 34 -91 46 -110 l20
-33 0 32 c0 17 7 66 15 108 l14 77 -29 43 c-17 24 -30 54 -30 66 0 21 0 21 20
-4 25 -32 56 -43 75 -27 21 17 19 40 -4 40 -54 0 -97 80 -67 125 34 52 106 11
77 -44 -10 -18 -9 -21 9 -21 11 0 30 10 41 21 17 17 20 29 15 58 -10 67 -83
101 -144 68z"/>
<path d="M27 5505 c-23 -22 -27 -34 -27 -79 0 -39 5 -57 18 -69 10 -10 21 -17
24 -17 3 0 8 25 10 55 3 36 13 66 27 86 38 51 -2 69 -52 24z"/>
<path d="M5907 5380 c-70 -118 -274 -266 -434 -314 -21 -7 -21 -8 13 -64 18
-31 38 -64 43 -72 7 -12 15 -1 36 46 26 58 30 62 98 95 82 39 164 97 225 161
43 45 43 45 40 112 l-3 67 -18 -31z"/>
<path d="M0 5183 l0 -49 99 -53 c80 -43 101 -59 106 -80 3 -14 14 -39 24 -55
l19 -29 22 44 c13 24 31 55 42 68 22 28 17 34 -37 51 -56 18 -151 66 -205 104
-73 52 -70 52 -70 -1z"/>
<path d="M5797 4753 c-80 -43 -202 -152 -235 -212 l-23 -41 51 0 c44 0 52 3
60 24 10 28 78 106 91 106 5 0 9 -20 9 -44 0 -85 8 -104 49 -109 47 -6 52 -2
40 30 -6 15 -11 58 -11 95 -1 57 3 76 29 128 18 35 27 60 20 60 -7 0 -43 -17
-80 -37z"/>
<path d="M0 4608 c0 -103 3 -129 12 -120 7 7 14 41 16 77 2 36 8 65 12 65 13
0 87 -86 95 -109 5 -18 14 -21 56 -21 27 0 49 3 49 6 0 36 -199 234 -234 234
-3 0 -6 -59 -6 -132z"/>
<path d="M5916 4668 c-8 -32 -6 -99 4 -123 6 -13 9 7 9 63 1 84 -2 99 -13 60z"/>
<path d="M1451 4518 c-19 -40 -37 -76 -39 -80 -6 -12 46 -10 68 2 18 10 50 63
50 84 0 6 -10 23 -23 39 l-22 28 -34 -73z"/>
<path d="M4272 4563 c-26 -33 -26 -31 -7 -77 16 -38 46 -56 91 -56 l25 0 -20
28 c-11 16 -27 48 -37 73 -23 61 -27 63 -52 32z"/>
<path d="M1556 4484 c-13 -34 -7 -42 34 -40 48 1 52 12 13 37 -34 23 -39 23
-47 3z"/>
<path d="M4165 4475 c-31 -26 -28 -28 29 -27 35 1 39 5 31 31 -8 27 -23 26
-60 -4z"/>
<path d="M2450 4421 c0 -5 -25 -21 -56 -37 -40 -21 -59 -38 -70 -63 -17 -41
-18 -68 -1 -74 8 -2 3 -17 -17 -46 -16 -23 -33 -44 -38 -47 -5 -3 -16 12 -24
32 -15 36 -15 87 1 125 5 14 -6 17 -77 22 -46 3 -99 9 -118 13 l-35 7 53 -47
c62 -57 139 -170 173 -255 13 -34 26 -61 30 -61 3 0 12 19 20 43 8 24 34 63
64 94 40 41 62 55 109 68 34 10 75 15 97 12 22 -3 39 -2 39 1 0 4 -16 27 -35
51 -20 24 -49 73 -67 108 -27 56 -48 79 -48 54z m-2 -103 c5 -7 12 -23 16 -34
6 -18 1 -23 -34 -32 -35 -8 -40 -8 -40 7 0 9 -3 26 -6 38 -4 15 -1 22 13 26
32 8 40 7 51 -5z"/>
<path d="M3241 4333 c-6 -26 -23 -62 -37 -80 -13 -17 -24 -35 -24 -40 0 -4 26
-9 58 -9 32 -1 73 -9 90 -18 27 -14 32 -14 32 -2 0 18 -90 196 -99 196 -4 0
-13 -21 -20 -47z"/>
<path d="M126 4244 c-54 -7 -105 -15 -113 -18 -8 -4 -13 -22 -13 -51 l0 -47
67 7 c38 4 76 11 85 16 16 8 82 99 76 104 -2 1 -48 -4 -102 -11z"/>
<path d="M291 4214 c-19 -24 -32 -46 -30 -48 8 -8 149 29 149 40 0 17 -45 54
-66 54 -11 0 -34 -20 -53 -46z"/>
<path d="M5391 4234 c-12 -15 -21 -30 -21 -33 0 -6 114 -31 140 -31 6 0 -3 20
-21 45 -38 53 -67 58 -98 19z"/>
<path d="M5560 4242 c0 -17 59 -90 77 -96 31 -9 214 -29 219 -24 2 3 -15 27
-40 54 -43 49 -46 50 -128 62 -99 14 -128 15 -128 4z"/>
<path d="M5900 4175 c13 -14 25 -25 27 -25 2 0 3 11 3 25 0 20 -5 25 -27 25
l-26 0 23 -25z"/>
<path d="M391 4124 c-41 -7 -82 -16 -90 -19 -20 -8 111 -85 143 -85 34 0 136
22 136 29 0 7 -106 92 -112 90 -2 -1 -36 -7 -77 -15z"/>
<path d="M5251 4098 c-28 -23 -51 -44 -51 -48 0 -7 105 -30 138 -30 12 0 36 8
54 19 85 48 98 57 98 64 0 4 -9 7 -20 7 -11 0 -21 0 -22 1 -10 2 -134 28 -139
29 -4 0 -29 -19 -58 -42z"/>
<path d="M2475 4101 c-87 -39 -139 -135 -139 -256 -1 -122 38 -196 191 -361
119 -129 180 -215 203 -288 17 -53 8 -122 -20 -151 -28 -30 -83 -49 -116 -41
-33 9 -30 -7 7 -38 47 -40 93 -36 140 13 44 47 43 47 55 -81 7 -86 -5 -105
-28 -42 -12 34 -14 35 -48 29 -19 -4 -37 -8 -38 -10 -2 -2 10 -19 27 -38 17
-18 49 -58 71 -88 21 -30 46 -63 54 -74 14 -18 15 -5 16 142 0 340 -62 502
-283 732 -56 58 -112 127 -124 152 -47 95 -48 202 -3 274 28 45 99 79 148 72
69 -11 113 -90 82 -148 -20 -36 15 -20 43 21 23 33 21 72 -4 121 -36 72 -146
100 -234 60z"/>
<path d="M3127 4098 c-72 -42 -97 -148 -46 -199 25 -25 43 -25 29 0 -18 35
-12 79 18 111 58 66 166 43 218 -46 24 -41 28 -59 28 -119 0 -105 -31 -161
-170 -306 -217 -229 -278 -393 -272 -736 l3 -147 28 42 c15 23 53 72 83 108
31 36 54 67 52 68 -1 2 -17 8 -34 14 -31 10 -32 9 -50 -31 -17 -38 -19 -39
-25 -16 -3 13 -5 38 -3 54 10 94 16 125 25 125 5 0 9 -6 9 -14 0 -8 14 -26 31
-40 42 -36 93 -35 131 1 37 35 35 42 -9 37 -79 -10 -141 65 -129 154 9 69 70
172 166 280 49 55 93 102 98 103 16 7 82 100 103 145 75 165 26 355 -105 415
-56 26 -131 24 -179 -3z"/>
<path d="M177 4058 c-8 -13 -24 -39 -36 -58 l-23 -35 6 53 5 53 -62 -3 c-61
-3 -62 -4 -65 -33 -2 -25 5 -35 41 -62 l44 -33 108 20 c60 11 112 20 117 20
21 0 3 21 -51 59 -33 22 -62 41 -65 41 -3 0 -12 -10 -19 -22z"/>
<path d="M5517 4038 c-32 -23 -54 -45 -50 -49 4 -4 57 -17 117 -28 l109 -21
69 53 c37 28 68 55 68 58 0 8 -79 19 -136 19 l-43 0 5 -52 5 -53 -33 57 c-18
32 -37 58 -43 57 -5 0 -36 -18 -68 -41z"/>
<path d="M5863 3986 c-29 -24 -49 -46 -46 -50 4 -3 30 -6 60 -6 l53 0 0 50 c0
28 -3 50 -7 50 -5 0 -31 -20 -60 -44z"/>
<path d="M608 3798 c-79 -27 -112 -48 -74 -48 18 0 74 -64 87 -99 19 -50 27
-116 19 -171 -4 -30 -7 -56 -5 -58 1 -1 16 3 33 9 26 9 31 16 34 47 l3 36 63
-3 c76 -3 136 22 170 72 41 61 20 147 -35 147 -25 0 -25 -1 -10 -18 56 -62
-34 -163 -127 -142 -105 23 -135 140 -60 230 23 26 24 30 7 29 -10 0 -57 -14
-105 -31z"/>
<path d="M5077 3804 c67 -94 38 -208 -58 -234 -83 -23 -168 51 -141 122 14 39
9 45 -23 28 -48 -26 -44 -107 8 -158 43 -42 81 -54 152 -50 l60 3 3 -37 c3
-31 8 -38 34 -47 40 -14 40 -14 33 9 -12 39 -7 138 10 191 13 38 31 66 63 96
l45 41 -84 27 c-46 14 -93 28 -103 32 -18 5 -18 4 1 -23z"/>
<path d="M300 3679 c-73 -25 -196 -59 -277 -75 -19 -4 -23 -11 -23 -43 0 -45
10 -54 114 -95 51 -20 87 -27 143 -28 68 0 77 2 111 29 35 28 62 76 50 88 -2
3 -24 -1 -47 -10 -68 -23 -136 -29 -201 -15 -33 7 -60 16 -60 20 0 4 19 10 43
13 24 3 84 20 134 37 113 37 155 39 188 5 38 -37 35 -94 -7 -137 -18 -18 -44
-41 -58 -50 -25 -17 -25 -17 30 -17 68 -1 93 15 115 74 45 117 -25 237 -137
234 -18 0 -71 -14 -118 -30z"/>
<path d="M5288 3694 c-64 -34 -96 -142 -64 -218 25 -60 49 -76 113 -76 l57 0
-37 28 c-78 57 -99 131 -52 177 33 34 79 32 188 -4 48 -17 107 -33 132 -37 25
-3 45 -10 45 -15 0 -27 -190 -31 -259 -5 -24 9 -46 14 -49 11 -10 -9 22 -66
50 -90 43 -36 159 -36 255 0 71 27 223 112 223 124 0 5 -26 9 -57 10 -80 2
-183 25 -324 71 -129 43 -178 48 -221 24z"/>
<path d="M2334 3573 c2 -10 12 -56 21 -103 9 -47 20 -88 23 -91 4 -4 37 -4 73
0 l67 6 -70 75 c-38 41 -77 87 -86 103 -18 30 -36 37 -28 10z"/>
<path d="M3419 3558 c-12 -18 -53 -64 -91 -103 l-67 -70 57 -5 c31 -3 62 -8
69 -13 7 -5 15 5 22 26 13 38 41 190 36 195 -1 2 -13 -12 -26 -30z"/>
<path d="M2452 3300 c-12 -5 -25 -17 -29 -26 -5 -15 34 -114 46 -114 4 0 11
10 16 22 22 51 103 46 127 -7 10 -21 9 -29 -6 -43 -15 -15 -18 -15 -26 -2 -15
24 -35 -2 -21 -28 21 -39 82 -32 102 12 30 64 -28 155 -114 181 -57 17 -63 17
-95 5z"/>
<path d="M3241 3300 c-39 -9 -77 -35 -105 -74 -28 -37 -29 -112 -2 -132 29
-21 73 -18 86 6 14 27 3 45 -17 28 -12 -10 -18 -9 -29 7 -19 26 -18 32 11 60
42 43 97 29 120 -30 6 -17 11 -13 31 30 32 68 31 83 -11 101 -38 15 -36 15
-84 4z"/>
</g>
</svg>
